<svg height="512pt" viewBox="0 -56 512 511" width="512pt" xmlns="http://www.w3.org/2000/svg"><path d="m10 10.503906h492v66h-492zm0 0" fill="#ff5691"/><path d="m218 160.546875h198v52.148437h-198zm0 0" fill="#05eabf"/><path d="m218 252.398438h198v52.148437h-198zm0 0" fill="#ffd469"/><path d="m98 239.046875h80v66h-80zm0 0" fill="#d0d0d0"/><path d="m511.988281 9.988281c-.269531-5.289062-4.636719-9.488281-9.988281-9.488281h-492c-5.351562 0-9.71875 4.199219-9.9882812 9.488281-.0117188.171875-.0117188.339844-.0117188.511719v379.878906c0 5.519532 4.480469 10 10 10h492c5.519531 0 10-4.480468 10-10v-379.878906c0-.171875 0-.339844-.011719-.511719zm-491.988281 10.390625h472v46.121094h-472zm472 360h-472v-293.878906h472zm0 0"/><path d="m171 54.128906h-80c-5.523438 0-10-4.476562-10-10 0-5.523437 4.476562-10 10-10h80c5.523438 0 10 4.476563 10 10 0 5.523438-4.476562 10-10 10zm0 0"/><path d="m51.019531 54.128906c-5.523437 0-10.003906-4.476562-10.003906-10 0-5.523437 4.472656-10 9.996094-10h.007812c5.523438 0 10 4.476563 10 10 0 5.523438-4.476562 10-10 10zm0 0"/><path d="m454 353.046875h-396c-5.523438 0-10-4.476563-10-10v-220c0-5.523437 4.476562-10 10-10h396c5.523438 0 10 4.476563 10 10v220c0 5.523437-4.476562 10-10 10zm-386-20h376v-200h-376zm0 0"/><path d="m416 222.695312h-198c-5.523438 0-10-4.476562-10-10v-52.148437c0-5.523437 4.476562-10 10-10h198c5.523438 0 10 4.476563 10 10v52.148437c0 5.523438-4.476562 10-10 10zm-188-20h178v-32.148437h-178zm0 0"/><path d="m416 314.546875h-198c-5.523438 0-10-4.476563-10-10v-52.148437c0-5.523438 4.476562-10 10-10h198c5.523438 0 10 4.476562 10 10v52.148437c0 5.523437-4.476562 10-10 10zm-188-20h178v-32.148437h-178zm0 0"/><path d="m178 229.050781h-10v-49.179687c0-15.890625-12.179688-28.820313-27.140625-28.820313h-5.71875c-14.960937 0-27.140625 12.929688-27.140625 28.820313v49.179687h-10c-5.519531 0-10 4.46875-10 10v66c0 5.519531 4.480469 10 10 10h80c5.519531 0 10-4.480469 10-10v-66c0-5.53125-4.480469-10-10-10zm-50-49.179687c0-4.78125 3.269531-8.820313 7.140625-8.820313h5.71875c3.871094 0 7.140625 4.039063 7.140625 8.820313v49.179687h-20zm40 115.179687h-60v-46h60zm0 0"/><path d="m139.019531 282.046875c-5.523437 0-10.003906-4.476563-10.003906-10s4.472656-10 9.996094-10h.007812c5.523438 0 10 4.476563 10 10s-4.476562 10-10 10zm0 0"/></svg>