<svg height="512pt" viewBox="0 -40 512.032 512" width="512pt" xmlns="http://www.w3.org/2000/svg"><path d="m428.015625 296.015625c19.921875 0 36 16.082031 36 36 0 19.921875-16.078125 36-36 36-19.839844 0-36-16.078125-36-36 0-19.917969 16.160156-36 36-36zm0 0" fill="#d7e9ff"/><path d="m428.015625 176.015625c19.921875 0 36 16.082031 36 36 0 19.921875-16.078125 36-36 36-19.839844 0-36-16.078125-36-36 0-19.917969 16.160156-36 36-36zm0 0" fill="#d7e9ff"/><path d="m428.015625 176.015625c-4.214844 0-8.214844.855469-11.984375 2.199219 13.960938 4.953125 23.984375 18.121094 23.984375 33.800781s-10.023437 28.847656-23.984375 33.800781c3.769531 1.34375 7.769531 2.199219 11.984375 2.199219 19.921875 0 36-16.078125 36-36 0-19.917969-16.078125-36-36-36zm0 0" fill="#94c1ff"/><path d="m428.015625 296.015625c-4.214844 0-8.214844.855469-11.984375 2.199219 13.960938 4.953125 23.984375 18.121094 23.984375 33.800781s-10.023437 28.847656-23.984375 33.800781c3.769531 1.34375 7.769531 2.199219 11.984375 2.199219 19.921875 0 36-16.078125 36-36 0-19.917969-16.078125-36-36-36zm0 0" fill="#94c1ff"/><path d="m504.015625 24.015625v16h-496v-16c0-8.878906 7.121094-16 16-16h464c8.878906 0 16 7.121094 16 16zm0 0" fill="#d7e9ff"/><path d="m416.015625 80.015625h48v48h-48zm0 0" fill="#94c1ff"/><path d="m48.015625 80.015625h368v48h-368zm0 0" fill="#fff"/><path d="m8.175781 40.015625h-.160156v384h496v-384zm419.839844 328c-19.839844 0-36-16.078125-36-36 0-19.917969 16.160156-36 36-36 19.921875 0 36 16.082031 36 36 0 19.921875-16.078125 36-36 36zm0-120c-19.839844 0-36-16.078125-36-36 0-19.917969 16.160156-36 36-36 19.921875 0 36 16.082031 36 36 0 19.921875-16.078125 36-36 36zm36-120h-416v-48h416zm0 0" fill="#fff"/><g fill="#116fff"><path d="m504.015625 432.015625c-4.421875 0-8-3.574219-8-8v-384c0-4.421875 3.578125-8 8-8 4.425781 0 8 3.578125 8 8v384c0 4.425781-3.574219 8-8 8zm0 0"/><path d="m80.222656 32.015625c-4.414062 0-8.039062-3.574219-8.039062-8 0-4.421875 3.535156-8 7.953125-8h.085937c4.417969 0 8 3.578125 8 8 0 4.425781-3.582031 8-8 8zm0 0"/><path d="m56.222656 32.015625c-4.414062 0-8.039062-3.574219-8.039062-8 0-4.421875 3.535156-8 7.953125-8h.085937c4.417969 0 8 3.578125 8 8 0 4.425781-3.582031 8-8 8zm0 0"/><path d="m32.222656 32.015625c-4.414062 0-8.039062-3.574219-8.039062-8 0-4.421875 3.535156-8 7.953125-8h.085937c4.417969 0 8 3.578125 8 8 0 4.425781-3.582031 8-8 8zm0 0"/><path d="m504.015625 32.015625c-4.421875 0-8-3.574219-8-8 0-4.414063-3.582031-8-8-8-4.421875 0-8-3.574219-8-8 0-4.421875 3.578125-8 8-8 13.230469 0 24 10.769531 24 24 0 4.425781-3.574219 8-8 8zm0 0"/><path d="m504.015625 48.015625c-4.421875 0-8-3.574219-8-8v-16c0-4.421875 3.578125-8 8-8 4.425781 0 8 3.578125 8 8v16c0 4.425781-3.574219 8-8 8zm0 0"/><path d="m8 32.015625c-4.425781 0-8-3.574219-8-8 0-13.230469 10.769531-24 24-24 4.425781 0 8 3.578125 8 8 0 4.425781-3.574219 8-8 8-4.414062 0-8 3.585937-8 8 0 4.425781-3.574219 8-8 8zm0 0"/><path d="m8 48.015625c-4.425781 0-8-3.574219-8-8v-16c0-4.421875 3.574219-8 8-8s8 3.578125 8 8v16c0 4.425781-3.574219 8-8 8zm0 0"/><path d="m488.03125 16.015625h-463.902344c-4.425781 0-8-3.574219-8-8 0-4.421875 3.574219-8 8-8h463.902344c4.425781 0 8 3.578125 8 8 0 4.425781-3.574219 8-8 8zm0 0"/><path d="m504.03125 48.015625h-495.902344c-4.425781 0-8-3.574219-8-8 0-4.421875 3.574219-8 8-8h495.902344c4.425781 0 8 3.578125 8 8 0 4.425781-3.574219 8-8 8zm0 0"/><path d="m8 432.015625c-4.425781 0-8-3.574219-8-8v-384c0-4.421875 3.574219-8 8-8s8 3.578125 8 8v384c0 4.425781-3.574219 8-8 8zm0 0"/><path d="m504.015625 432.015625h-496.015625c-4.425781 0-8-3.574219-8-8 0-4.421875 3.574219-8 8-8h496.015625c4.425781 0 8 3.578125 8 8 0 4.425781-3.574219 8-8 8zm0 0"/><path d="m464.015625 136.015625h-416c-4.421875 0-8-3.574219-8-8v-48c0-4.421875 3.578125-8 8-8h416c4.425781 0 8 3.578125 8 8v48c0 4.425781-3.574219 8-8 8zm-408-16h400v-32h-400zm0 0"/><path d="m416.015625 136.015625c-4.421875 0-8-3.574219-8-8v-48c0-4.421875 3.578125-8 8-8 4.425781 0 8 3.578125 8 8v48c0 4.425781-3.574219 8-8 8zm0 0"/><path d="m48.257812 256.015625c-4.425781 0-8.042968-3.574219-8.042968-8 0-4.421875 3.539062-8 7.953125-8h.089843c4.414063 0 8 3.578125 8 8 0 4.425781-3.585937 8-8 8zm0 0"/><path d="m104.015625 208.015625c-4.421875 0-8-3.574219-8-8 0-4.414063-3.582031-8-8-8-4.414063 0-8 3.585937-8 8 0 4.425781-3.574219 8-8 8-4.421875 0-8-3.574219-8-8 0-13.230469 10.769531-24 24-24s24 10.769531 24 24c0 4.425781-3.574219 8-8 8zm0 0"/><path d="m88.015625 256.015625c-13.230469 0-24-10.769531-24-24 0-4.421875 3.578125-8 8-8 4.425781 0 8 3.578125 8 8 0 4.417969 3.585937 8 8 8 4.417969 0 8-3.582031 8-8 0-4.421875 3.578125-8 8-8 4.425781 0 8 3.578125 8 8 0 13.230469-10.769531 24-24 24zm0 0"/><path d="m160.015625 208.015625c-4.421875 0-8-3.574219-8-8 0-4.414063-3.582031-8-8-8-4.414063 0-8 3.585937-8 8 0 4.425781-3.574219 8-8 8-4.421875 0-8-3.574219-8-8 0-13.230469 10.769531-24 24-24s24 10.769531 24 24c0 4.425781-3.574219 8-8 8zm0 0"/><path d="m144.015625 256.015625c-13.230469 0-24-10.769531-24-24 0-4.421875 3.578125-8 8-8 4.425781 0 8 3.578125 8 8 0 4.417969 3.585937 8 8 8 4.417969 0 8-3.582031 8-8 0-4.421875 3.578125-8 8-8 4.425781 0 8 3.578125 8 8 0 13.230469-10.769531 24-24 24zm0 0"/><path d="m72.015625 240.015625c-4.421875 0-8-3.574219-8-8v-32c0-4.421875 3.578125-8 8-8 4.425781 0 8 3.578125 8 8v32c0 4.425781-3.574219 8-8 8zm0 0"/><path d="m128.015625 240.015625c-4.421875 0-8-3.574219-8-8v-32c0-4.421875 3.578125-8 8-8 4.425781 0 8 3.578125 8 8v32c0 4.425781-3.574219 8-8 8zm0 0"/><path d="m160.015625 240.015625c-4.421875 0-8-3.574219-8-8v-32c0-4.421875 3.578125-8 8-8 4.425781 0 8 3.578125 8 8v32c0 4.425781-3.574219 8-8 8zm0 0"/><path d="m184.015625 256.015625c-4.421875 0-8-3.574219-8-8v-64c0-4.421875 3.578125-8 8-8 4.425781 0 8 3.578125 8 8v64c0 4.425781-3.574219 8-8 8zm0 0"/><path d="m208.023438 232.015625c-2.71875 0-5.367188-1.382813-6.863282-3.878906l-24-40c-2.273437-3.792969-1.046875-8.703125 2.742188-10.976563 3.800781-2.273437 8.707031-1.039062 10.976562 2.742188l24 40c2.273438 3.792968 1.050782 8.707031-2.742187 10.976562-1.289063.769532-2.710938 1.136719-4.113281 1.136719zm0 0"/><path d="m208.007812 232.015625c-1.398437 0-2.824218-.367187-4.113281-1.144531-3.789062-2.269532-5.015625-7.183594-2.742187-10.976563l24-40c2.273437-3.78125 7.175781-5.015625 10.976562-2.742187 3.792969 2.273437 5.015625 7.183594 2.742188 10.976562l-24 40c-1.496094 2.503906-4.144532 3.886719-6.863282 3.886719zm0 0"/><path d="m232.015625 256.015625c-4.421875 0-8-3.574219-8-8v-64c0-4.421875 3.578125-8 8-8 4.425781 0 8 3.578125 8 8v64c0 4.425781-3.574219 8-8 8zm0 0"/><path d="m428.015625 256.015625c-24.253906 0-44-19.742187-44-44 0-24.253906 19.746094-44 44-44 24.257813 0 44 19.746094 44 44 0 24.257813-19.742187 44-44 44zm0-72c-15.441406 0-28 12.558594-28 28s12.558594 28 28 28 28-12.558594 28-28-12.558594-28-28-28zm0 0"/><path d="m424.015625 232.015625c-2.046875 0-4.09375-.785156-5.65625-2.34375l-8-8c-3.128906-3.128906-3.128906-8.183594 0-11.3125s8.183594-3.128906 11.3125 0l8 8c3.128906 3.128906 3.128906 8.183594 0 11.3125-1.558594 1.558594-3.609375 2.34375-5.65625 2.34375zm0 0"/><path d="m424.015625 232.015625c-2.046875 0-4.09375-.785156-5.65625-2.34375-3.128906-3.128906-3.128906-8.183594 0-11.3125l16-16c3.128906-3.128906 8.183594-3.128906 11.3125 0s3.128906 8.183594 0 11.3125l-16 16c-1.558594 1.558594-3.609375 2.34375-5.65625 2.34375zm0 0"/><path d="m352.015625 208.015625h-64c-4.421875 0-8-3.574219-8-8 0-4.421875 3.578125-8 8-8h64c4.425781 0 8 3.578125 8 8 0 4.425781-3.574219 8-8 8zm0 0"/><path d="m320.015625 232.015625h-32c-4.421875 0-8-3.574219-8-8 0-4.421875 3.578125-8 8-8h32c4.425781 0 8 3.578125 8 8 0 4.425781-3.574219 8-8 8zm0 0"/><path d="m48.257812 376.015625c-4.425781 0-8.042968-3.574219-8.042968-8 0-4.421875 3.539062-8 7.953125-8h.089843c4.414063 0 8 3.578125 8 8 0 4.425781-3.585937 8-8 8zm0 0"/><path d="m72.015625 376.015625c-4.421875 0-8-3.574219-8-8v-64c0-4.421875 3.578125-8 8-8 4.425781 0 8 3.578125 8 8v64c0 4.425781-3.574219 8-8 8zm0 0"/><path d="m104.023438 376.015625c-2.933594 0-5.757813-1.617187-7.167969-4.421875l-32-64c-1.976563-3.953125-.375-8.761719 3.578125-10.738281 3.949218-1.960938 8.75-.375 10.734375 3.578125l32 64c1.976562 3.949218.375 8.757812-3.574219 10.734375-1.144531.574219-2.371094.847656-3.570312.847656zm0 0"/><path d="m104.015625 376.015625c-4.421875 0-8-3.574219-8-8v-64c0-4.421875 3.578125-8 8-8 4.425781 0 8 3.578125 8 8v64c0 4.425781-3.574219 8-8 8zm0 0"/><path d="m428.015625 376.015625c-24.253906 0-44-19.742187-44-44 0-24.253906 19.746094-44 44-44 24.257813 0 44 19.746094 44 44 0 24.257813-19.742187 44-44 44zm0-72c-15.441406 0-28 12.558594-28 28s12.558594 28 28 28 28-12.558594 28-28-12.558594-28-28-28zm0 0"/><path d="m352.015625 328.015625h-64c-4.421875 0-8-3.574219-8-8 0-4.421875 3.578125-8 8-8h64c4.425781 0 8 3.578125 8 8 0 4.425781-3.574219 8-8 8zm0 0"/><path d="m320.015625 352.015625h-32c-4.421875 0-8-3.574219-8-8 0-4.421875 3.578125-8 8-8h32c4.425781 0 8 3.578125 8 8 0 4.425781-3.574219 8-8 8zm0 0"/><path d="m128.015625 376.015625c-4.421875 0-8-3.574219-8-8v-64c0-4.421875 3.578125-8 8-8 4.425781 0 8 3.578125 8 8v64c0 4.425781-3.574219 8-8 8zm0 0"/><path d="m152.015625 312.015625h-24c-4.421875 0-8-3.574219-8-8 0-4.421875 3.578125-8 8-8h24c4.425781 0 8 3.578125 8 8 0 4.425781-3.574219 8-8 8zm0 0"/><path d="m144.015625 344.015625h-16c-4.421875 0-8-3.574219-8-8 0-4.421875 3.578125-8 8-8h16c4.425781 0 8 3.578125 8 8 0 4.425781-3.574219 8-8 8zm0 0"/><path d="m152.015625 376.015625h-24c-4.421875 0-8-3.574219-8-8 0-4.421875 3.578125-8 8-8h24c4.425781 0 8 3.578125 8 8 0 4.425781-3.574219 8-8 8zm0 0"/><path d="m192.015625 376.015625c-4.421875 0-8-3.574219-8-8v-64c0-4.421875 3.578125-8 8-8 4.425781 0 8 3.578125 8 8v64c0 4.425781-3.574219 8-8 8zm0 0"/><path d="m208.015625 312.015625h-32c-4.421875 0-8-3.574219-8-8 0-4.421875 3.578125-8 8-8h32c4.425781 0 8 3.578125 8 8 0 4.425781-3.574219 8-8 8zm0 0"/><path d="m440.015625 352.015625c-2.046875 0-4.09375-.785156-5.65625-2.34375l-24-24c-3.128906-3.128906-3.128906-8.183594 0-11.3125s8.183594-3.128906 11.3125 0l24 24c3.128906 3.128906 3.128906 8.183594 0 11.3125-1.558594 1.558594-3.609375 2.34375-5.65625 2.34375zm0 0"/><path d="m416.015625 352.015625c-2.046875 0-4.09375-.785156-5.65625-2.34375-3.128906-3.128906-3.128906-8.183594 0-11.3125l24-24c3.128906-3.128906 8.183594-3.128906 11.3125 0s3.128906 8.183594 0 11.3125l-24 24c-1.558594 1.558594-3.609375 2.34375-5.65625 2.34375zm0 0"/><path d="m216.015625 112.015625h-144.03125c-4.425781 0-8-3.574219-8-8 0-4.421875 3.574219-8 8-8h144.03125c4.425781 0 8 3.578125 8 8 0 4.425781-3.574219 8-8 8zm0 0"/></g></svg>