<svg height="512pt" viewBox="0 -20 512 512" width="512pt" xmlns="http://www.w3.org/2000/svg"><path d="m360 456v8h-208v-8c0-8.878906 7.121094-16 16-16h176c8.878906 0 16 7.121094 16 16zm0 0" fill="#fff"/><path d="m312 376 16 64h-144l16-64zm0 0" fill="#d7e9ff"/><path d="m504 360c0 8.800781-7.199219 16-16 16h-464c-8.800781 0-16-7.199219-16-16v-16h496zm0 0" fill="#fff"/><path d="m256 152c13.199219 0 24 10.800781 24 24s-10.800781 24-24 24-24-10.800781-24-24 10.800781-24 24-24zm0 0" fill="#5c9eff"/><path d="m256 96c44.160156 0 80 35.839844 80 80s-35.839844 80-80 80-80-35.839844-80-80 35.839844-80 80-80zm24 80c0-13.199219-10.800781-24-24-24s-24 10.800781-24 24 10.800781 24 24 24 24-10.800781 24-24zm0 0" fill="#94c1ff"/><path d="m256 64c73.761719 0 139.839844 43.519531 184 112-44.160156 68.480469-110.238281 112-184 112s-139.839844-43.519531-184-112c44.160156-68.480469 110.238281-112 184-112zm80 112c0-44.160156-35.839844-80-80-80s-80 35.839844-80 80 35.839844 80 80 80 80-35.839844 80-80zm0 0" fill="#fff"/><path d="m504 24v320h-496v-320c0-8.800781 7.199219-16 16-16h464c8.800781 0 16 7.199219 16 16zm-64 152c-44.160156-68.480469-110.238281-112-184-112s-139.839844 43.519531-184 112c44.160156 68.480469 110.238281 112 184 112s139.839844-43.519531 184-112zm0 0" fill="#94c1ff"/><g fill="#116fff"><path d="m256.238281 368c-4.421875 0-8.039062-3.574219-8.039062-8s3.535156-8 7.953125-8h.085937c4.417969 0 8 3.574219 8 8s-3.582031 8-8 8zm0 0"/><path d="m504 352h-495.625c-4.421875 0-8-3.574219-8-8s3.578125-8 8-8h495.625c4.425781 0 8 3.574219 8 8s-3.574219 8-8 8zm0 0"/><path d="m488 384h-464c-13.230469 0-24-10.769531-24-24v-336c0-13.230469 10.769531-24 24-24h464c13.230469 0 24 10.769531 24 24v336c0 13.230469-10.769531 24-24 24zm-464-368c-4.414062 0-8 3.585938-8 8v336c0 4.414062 3.585938 8 8 8h464c4.414062 0 8-3.585938 8-8v-336c0-4.414062-3.585938-8-8-8zm0 0"/><path d="m184.007812 448c-.640624 0-1.296874-.078125-1.945312-.238281-4.285156-1.074219-6.894531-5.417969-5.824219-9.699219l16-64c1.066407-4.292969 5.417969-6.917969 9.699219-5.824219 4.285156 1.074219 6.894531 5.417969 5.824219 9.699219l-16 64c-.914063 3.636719-4.167969 6.0625-7.753907 6.0625zm0 0"/><path d="m327.992188 448c-3.585938 0-6.839844-2.425781-7.753907-6.0625l-16-64c-1.078125-4.28125 1.53125-8.625 5.824219-9.699219 4.273438-1.101562 8.625 1.53125 9.699219 5.824219l16 64c1.078125 4.28125-1.53125 8.625-5.824219 9.699219-.648438.160156-1.304688.238281-1.945312.238281zm0 0"/><path d="m152 464c-4.425781 0-8-3.574219-8-8 0-13.230469 10.769531-24 24-24 4.425781 0 8 3.574219 8 8s-3.574219 8-8 8c-4.414062 0-8 3.585938-8 8 0 4.425781-3.574219 8-8 8zm0 0"/><path d="m360 464c-4.425781 0-8-3.574219-8-8 0-4.414062-3.585938-8-8-8-4.425781 0-8-3.574219-8-8s3.574219-8 8-8c13.230469 0 24 10.769531 24 24 0 4.425781-3.574219 8-8 8zm0 0"/><path d="m344 448h-176c-4.425781 0-8-3.574219-8-8s3.574219-8 8-8h176c4.425781 0 8 3.574219 8 8s-3.574219 8-8 8zm0 0"/><path d="m152 472c-4.425781 0-8-3.574219-8-8v-8c0-4.425781 3.574219-8 8-8s8 3.574219 8 8v8c0 4.425781-3.574219 8-8 8zm0 0"/><path d="m360 472h-208c-4.425781 0-8-3.574219-8-8s3.574219-8 8-8h208c4.425781 0 8 3.574219 8 8s-3.574219 8-8 8zm0 0"/><path d="m360 472c-4.425781 0-8-3.574219-8-8v-8c0-4.425781 3.574219-8 8-8s8 3.574219 8 8v8c0 4.425781-3.574219 8-8 8zm0 0"/><path d="m256 296c-73.777344 0-143.289062-42.160156-190.71875-115.664062-1.714844-2.640626-1.714844-6.03125 0-8.671876 47.429688-73.503906 116.941406-115.664062 190.71875-115.664062s143.289062 42.160156 190.71875 115.664062c1.714844 2.640626 1.714844 6.03125 0 8.671876-47.429688 73.503906-116.941406 115.664062-190.71875 115.664062zm-174.433594-120c44.320313 66.167969 107.640625 104 174.433594 104s130.113281-37.832031 174.433594-104c-44.320313-66.167969-107.640625-104-174.433594-104s-130.113281 37.832031-174.433594 104zm0 0"/><path d="m256 264c-48.519531 0-88-39.480469-88-88s39.480469-88 88-88 88 39.480469 88 88-39.480469 88-88 88zm0-160c-39.703125 0-72 32.296875-72 72s32.296875 72 72 72 72-32.296875 72-72-32.296875-72-72-72zm0 0"/><path d="m256 208c-17.648438 0-32-14.351562-32-32s14.351562-32 32-32 32 14.351562 32 32-14.351562 32-32 32zm0-48c-8.824219 0-16 7.175781-16 16s7.175781 16 16 16 16-7.175781 16-16-7.175781-16-16-16zm0 0"/></g></svg>