<?xml version="1.0" encoding="iso-8859-1"?>
<!-- Generator: Adobe Illustrator 19.0.0, SVG Export Plug-In . SVG Version: 6.00 Build 0)  -->
<svg version="1.1" id="Capa_1" xmlns="http://www.w3.org/2000/svg" xmlns:xlink="http://www.w3.org/1999/xlink" x="0px" y="0px"
	 viewBox="0 0 511.635 511.635" style="enable-background:new 0 0 511.635 511.635;" xml:space="preserve">
<polygon style="fill:#94C1FF;" points="275.795,35.975 275.795,43.969 267.8,51.964 259.806,51.964 243.817,51.964 243.817,19.986 
	259.806,19.986 267.8,19.986 275.795,27.981 "/>
<path style="fill:#D7E9FF;" d="M239.422,19.986c-5.598-9.509-15.747-15.988-27.582-15.988c-17.667,0-31.978,14.318-31.978,31.978
	c0,17.675,14.311,31.977,31.978,31.977c11.835,0,21.984-6.479,27.582-15.988h4.395V19.986H239.422z"/>
<path style="fill:#FFFFFF;" d="M195.852,35.975c0-14.935,10.282-27.379,24.131-30.893c-2.592-0.694-5.316-1.085-8.143-1.085
	c-17.667,0-31.978,14.318-31.978,31.978c0,17.675,14.311,31.977,31.978,31.977c2.826,0,5.551-0.39,8.143-1.085
	C206.133,63.361,195.852,50.925,195.852,35.975z"/>
<rect x="43.987" y="139.748" style="fill:#D7E9FF;" width="423.7" height="263.81"/>
<rect x="27.997" y="107.768" style="fill:#5C9EFF;" width="455.68" height="31.978"/>
<g>
	<rect x="243.827" y="91.778" style="fill:#94C1FF;" width="15.989" height="15.988"/>
	<rect x="247.837" y="403.558" style="fill:#94C1FF;" width="15.989" height="103.93"/>
</g>
<g>
	<polygon style="fill:#D7E9FF;" points="255.833,453.521 147.909,507.482 115.932,507.482 255.833,437.532 	"/>
	<polygon style="fill:#D7E9FF;" points="255.833,453.521 363.755,507.482 395.732,507.482 255.833,437.532 	"/>
</g>
<rect x="27.997" y="107.768" style="fill:#94C1FF;" width="15.989" height="31.978"/>
<rect x="43.987" y="139.748" style="fill:#FFFFFF;" width="15.989" height="263.81"/>
<rect x="451.697" y="139.748" style="fill:#94C1FF;" width="15.988" height="263.81"/>
<rect x="467.677" y="107.768" style="fill:#2287FF;" width="15.988" height="31.978"/>
<g>
	<rect x="247.837" y="403.558" style="fill:#5C9EFF;" width="15.989" height="15.988"/>
	<path style="fill:#5C9EFF;" d="M235.831,263.812V279.8c0,37.489-30.462,67.952-67.951,67.952S99.93,317.289,99.93,279.8v-15.988
		c0,37.489,30.462,67.951,67.951,67.951C205.368,331.763,235.831,301.301,235.831,263.812z"/>
	<path style="fill:#5C9EFF;" d="M141.102,271.65c3.357,11.664,14.068,20.143,26.778,20.143v39.971
		c-37.489,0-67.951-30.462-67.951-67.951c0-18.783,7.596-35.818,19.907-48.044l28.058,28.059l0.234,0.234
		c-5.106,5.043-8.229,12.078-8.229,19.751C139.9,266.529,140.297,269.168,141.102,271.65z"/>
</g>
<path style="fill:#94C1FF;" d="M194.657,271.65c0.804-2.482,1.202-5.121,1.202-7.838c0-15.426-12.553-27.98-27.98-27.98
	c-7.674,0-14.708,3.123-19.751,8.229l-0.234-0.234l-28.058-28.059c12.304-12.312,29.339-19.907,48.044-19.907
	c37.489,0,67.951,30.376,67.951,67.951c0,37.489-30.462,67.951-67.951,67.951v-39.971C180.589,291.793,191.3,283.314,194.657,271.65
	z"/>
<path style="fill:#5C9EFF;" d="M167.879,195.861c-2.701,0-5.363,0.203-7.986,0.515c33.718,3.958,59.949,32.578,59.949,67.436
	c0,34.788-26.231,63.471-59.957,67.437c2.623,0.312,5.285,0.515,7.994,0.515c37.489,0,67.951-30.462,67.951-67.951
	C235.831,226.237,205.368,195.861,167.879,195.861z"/>
<g>
	<path style="fill:#94C1FF;" d="M115.917,263.812c0-18.783,7.596-35.818,19.908-48.044c10.524-10.531,24.529-17.565,40.057-19.392
		c-2.631-0.312-5.285-0.515-8.002-0.515c-18.705,0-35.74,7.596-48.044,19.907c-12.312,12.226-19.907,29.261-19.907,48.044
		c0,37.489,30.462,67.951,67.951,67.951c2.709,0,5.371-0.203,7.994-0.515C142.148,327.283,115.917,298.6,115.917,263.812z"/>
	<path style="fill:#94C1FF;" d="M195.859,263.812c0,2.717-0.398,5.355-1.202,7.838c-3.435-11.515-14.146-19.829-26.778-19.829
		s-23.343,8.314-26.778,19.829c-0.804-2.482-1.202-5.121-1.202-7.838c0-7.674,3.123-14.708,8.229-19.751
		c5.043-5.106,12.077-8.229,19.751-8.229C183.306,235.832,195.859,248.386,195.859,263.812z"/>
	<path style="fill:#94C1FF;" d="M235.831,279.8v-15.988c0,37.489-30.462,67.951-67.951,67.951v15.989
		C205.368,347.753,235.831,317.29,235.831,279.8z"/>
</g>
<g>
	<path style="fill:#116FFF;" d="M167.879,335.761c-39.671,0-71.949-32.274-71.949-71.949s32.278-71.948,71.949-71.948
		s71.949,32.273,71.949,71.948S207.55,335.761,167.879,335.761z M167.879,199.858c-35.264,0-63.954,28.69-63.954,63.954
		s28.69,63.954,63.954,63.954s63.954-28.69,63.954-63.954S203.143,199.858,167.879,199.858z"/>
	<path style="fill:#116FFF;" d="M167.879,351.75c-39.671,0-71.949-32.273-71.949-71.949c0-2.209,1.788-3.997,3.998-3.997
		c2.209,0,3.997,1.788,3.997,3.997c0,35.265,28.69,63.955,63.954,63.955s63.954-28.69,63.954-63.955
		c0-2.209,1.788-3.997,3.997-3.997c2.21,0,3.998,1.788,3.998,3.997C239.828,319.476,207.55,351.75,167.879,351.75z"/>
	<path style="fill:#116FFF;" d="M99.928,283.798c-2.21,0-3.998-1.788-3.998-3.998v-15.988c0-2.209,1.788-3.997,3.998-3.997
		c2.209,0,3.997,1.788,3.997,3.997V279.8C103.925,282.01,102.137,283.798,99.928,283.798z"/>
	<path style="fill:#116FFF;" d="M235.831,283.798c-2.209,0-3.997-1.788-3.997-3.998v-15.988c0-2.209,1.788-3.997,3.997-3.997
		c2.21,0,3.998,1.788,3.998,3.997V279.8C239.828,282.01,238.041,283.798,235.831,283.798z"/>
	<path style="fill:#116FFF;" d="M167.879,295.79c-17.632,0-31.978-14.342-31.978-31.978s14.346-31.977,31.978-31.977
		s31.977,14.341,31.977,31.977C199.856,281.448,185.511,295.79,167.879,295.79z M167.879,239.83
		c-13.225,0-23.983,10.758-23.983,23.982s10.758,23.982,23.983,23.982s23.983-10.758,23.983-23.982S181.104,239.83,167.879,239.83z"
		/>
	<path style="fill:#116FFF;" d="M194.704,275.803c-1.725,0-3.313-1.124-3.833-2.856c-2.998-10.087-12.452-17.129-22.992-17.129
		s-19.994,7.042-22.991,17.129c-0.629,2.115-2.826,3.31-4.973,2.693c-2.116-0.633-3.322-2.857-2.693-4.974
		c4.001-13.451,16.605-22.843,30.658-22.843s26.657,9.392,30.658,22.843c0.628,2.116-0.578,4.341-2.693,4.974
		C195.462,275.75,195.079,275.803,194.704,275.803z"/>
	<path style="fill:#116FFF;" d="M147.855,247.785c-1.023,0-2.045-0.391-2.826-1.171l-28.02-28.02c-1.562-1.562-1.562-4.091,0-5.652
		s4.091-1.561,5.652,0l28.019,28.02c1.562,1.562,1.562,4.091,0,5.652C149.9,247.394,148.878,247.785,147.855,247.785z"/>
	<path style="fill:#116FFF;" d="M167.879,335.761c-2.209,0-3.997-1.788-3.997-3.998v-39.971c0-2.21,1.788-3.998,3.997-3.998
		s3.997,1.788,3.997,3.998v39.971C171.877,333.973,170.088,335.761,167.879,335.761z"/>
	<path style="fill:#116FFF;" d="M211.84,71.949c-19.838,0-35.975-16.137-35.975-35.974C175.865,16.137,192.002,0,211.84,0
		c11.909,0,23.104,6.074,29.756,15.988h2.221c2.209,0,3.997,1.788,3.997,3.997v31.978c0,2.209-1.788,3.997-3.997,3.997h-2.221
		C234.941,65.876,223.746,71.949,211.84,71.949z M211.84,7.995c-15.427,0-27.98,12.554-27.98,27.98s12.554,27.979,27.98,27.979
		c9.841,0,19.072-5.363,24.088-13.998c0.715-1.234,2.03-1.991,3.455-1.991h0.437V23.984h-0.437c-1.425,0-2.74-0.757-3.459-1.991
		C230.838,13.225,221.837,7.995,211.84,7.995z"/>
	<path style="fill:#116FFF;" d="M267.808,55.961h-23.991c-2.209,0-3.997-1.788-3.997-3.997V19.986c0-2.209,1.788-3.997,3.997-3.997
		h23.991c1.062,0,2.076,0.422,2.826,1.171l7.994,7.994c0.75,0.75,1.171,1.764,1.171,2.826v15.989c0,1.062-0.421,2.076-1.171,2.826
		l-7.994,7.994C269.884,55.539,268.87,55.961,267.808,55.961z M247.815,47.966h18.338l5.652-5.652V29.635l-5.652-5.652h-18.338
		V47.966z"/>
	<path style="fill:#116FFF;" d="M259.814,55.961c-2.209,0-3.997-1.788-3.997-3.997V19.986c0-2.209,1.788-3.997,3.997-3.997
		s3.997,1.788,3.997,3.997v31.978C263.811,54.172,262.023,55.961,259.814,55.961z"/>
	<path style="fill:#116FFF;" d="M235.823,47.966c-1.022,0-2.045-0.391-2.826-1.171l-7.994-7.995c-1.562-1.561-1.562-4.091,0-5.652
		l7.994-7.995c1.562-1.561,4.091-1.561,5.652,0c1.562,1.562,1.562,4.091,0,5.652l-5.168,5.168l5.168,5.168
		c1.562,1.562,1.562,4.091,0,5.652C237.869,47.576,236.846,47.966,235.823,47.966z"/>
	<path style="fill:#116FFF;" d="M235.823,47.966h-23.982c-2.209,0-3.997-1.788-3.997-3.997c0-2.209,1.788-3.997,3.997-3.997h23.982
		c2.21,0,3.998,1.788,3.998,3.997C239.82,46.178,238.033,47.966,235.823,47.966z"/>
	<path style="fill:#116FFF;" d="M235.823,31.978h-23.982c-2.209,0-3.997-1.788-3.997-3.997s1.788-3.997,3.997-3.997h23.982
		c2.21,0,3.998,1.788,3.998,3.997S238.033,31.978,235.823,31.978z"/>
	<path style="fill:#116FFF;" d="M315.774,63.955c-2.21,0-3.997-1.788-3.997-3.997c0-11.023-8.963-19.985-19.986-19.985
		c-2.209,0-3.997-1.788-3.997-3.997c0-2.21,1.788-3.998,3.997-3.998c15.427,0,27.98,12.554,27.98,27.98
		C319.771,62.167,317.983,63.955,315.774,63.955z"/>
	<path style="fill:#116FFF;" d="M315.774,111.921c-2.21,0-3.997-1.788-3.997-3.997V59.958c0-2.209,1.787-3.997,3.997-3.997
		c2.209,0,3.997,1.788,3.997,3.997v47.966C319.771,110.133,317.983,111.921,315.774,111.921z"/>
	<path style="fill:#116FFF;" d="M259.814,111.921h-15.989c-2.209,0-3.997-1.788-3.997-3.997V91.935c0-2.21,1.788-3.997,3.997-3.997
		h15.989c2.209,0,3.997,1.787,3.997,3.997v15.988C263.811,110.133,262.023,111.921,259.814,111.921z M247.822,103.926h7.995v-7.994
		h-7.995V103.926z"/>
	<path style="fill:#116FFF;" d="M467.666,407.71H43.968c-2.209,0-3.997-1.788-3.997-3.997V139.901c0-2.21,1.788-3.998,3.997-3.998
		h423.698c2.209,0,3.997,1.788,3.997,3.998v263.812C471.663,405.922,469.875,407.71,467.666,407.71z M47.965,399.715h415.704
		V143.898H47.965V399.715z"/>
	<path style="fill:#116FFF;" d="M483.654,143.898H27.979c-2.209,0-3.997-1.788-3.997-3.997v-31.978c0-2.209,1.788-3.997,3.997-3.997
		h455.675c2.209,0,3.997,1.788,3.997,3.997v31.978C487.651,142.11,485.863,143.898,483.654,143.898z M31.976,135.903h447.681V111.92
		H31.976V135.903z"/>
	<path style="fill:#116FFF;" d="M459.671,127.909H51.963c-2.21,0-3.998-1.788-3.998-3.998c0-2.209,1.788-3.997,3.998-3.997h407.709
		c2.209,0,3.997,1.788,3.997,3.997C463.669,126.122,461.88,127.909,459.671,127.909z"/>
	<path style="fill:#116FFF;" d="M363.74,511.635c-0.609,0-1.218-0.133-1.788-0.422l-107.923-53.961
		c-1.975-0.991-2.775-3.389-1.788-5.363c0.988-1.976,3.393-2.787,5.364-1.788l107.922,53.961c1.976,0.992,2.771,3.389,1.788,5.363
		C366.613,510.824,365.208,511.635,363.74,511.635z"/>
	<path style="fill:#116FFF;" d="M395.716,511.635c-0.608,0-1.218-0.133-1.787-0.422l-139.9-69.95
		c-1.975-0.991-2.775-3.388-1.788-5.363c0.988-1.967,3.393-2.787,5.364-1.787l139.899,69.949c1.976,0.992,2.771,3.389,1.788,5.363
		C398.589,510.824,397.184,511.635,395.716,511.635z"/>
	<path style="fill:#116FFF;" d="M395.716,511.635h-31.977c-2.209,0-3.997-1.788-3.997-3.997s1.788-3.997,3.997-3.997h31.977
		c2.21,0,3.998,1.788,3.998,3.997S397.926,511.635,395.716,511.635z"/>
	<path style="fill:#116FFF;" d="M147.898,511.635c-1.467,0-2.876-0.812-3.58-2.21c-0.987-1.975-0.188-4.371,1.788-5.363
		l107.923-53.961c1.979-0.999,4.372-0.188,5.363,1.788c0.987,1.975,0.188,4.372-1.787,5.363l-107.924,53.961
		C149.108,511.503,148.499,511.635,147.898,511.635z"/>
	<path style="fill:#116FFF;" d="M115.921,511.635c-1.468,0-2.877-0.812-3.58-2.21c-0.988-1.975-0.187-4.371,1.788-5.363
		l139.9-69.949c1.979-1,4.372-0.18,5.363,1.787c0.987,1.976,0.188,4.372-1.787,5.363l-139.9,69.95
		C117.13,511.503,116.522,511.635,115.921,511.635z"/>
	<path style="fill:#116FFF;" d="M147.894,511.635h-31.977c-2.209,0-3.997-1.788-3.997-3.997s1.788-3.997,3.997-3.997h31.977
		c2.209,0,3.998,1.788,3.998,3.997S150.103,511.635,147.894,511.635z"/>
	<path style="fill:#116FFF;" d="M247.822,445.682c-2.209,0-3.997-1.788-3.997-3.997v-37.973c0-2.209,1.788-3.997,3.997-3.997
		s3.997,1.788,3.997,3.997v37.973C251.819,443.894,250.032,445.682,247.822,445.682z"/>
	<path style="fill:#116FFF;" d="M263.811,445.682c-2.21,0-3.997-1.788-3.997-3.997v-37.973c0-2.209,1.787-3.997,3.997-3.997
		c2.209,0,3.997,1.788,3.997,3.997v37.973C267.808,443.894,266.02,445.682,263.811,445.682z"/>
	<path style="fill:#116FFF;" d="M263.811,511.635c-2.21,0-3.997-1.788-3.997-3.997v-49.965c0-2.209,1.787-3.997,3.997-3.997
		c2.209,0,3.997,1.788,3.997,3.997v49.965C267.808,509.847,266.02,511.635,263.811,511.635z"/>
	<path style="fill:#116FFF;" d="M263.811,511.635h-15.989c-2.209,0-3.997-1.788-3.997-3.997s1.788-3.997,3.997-3.997h15.989
		c2.209,0,3.997,1.788,3.997,3.997S266.02,511.635,263.811,511.635z"/>
	<path style="fill:#116FFF;" d="M247.822,511.635c-2.209,0-3.997-1.788-3.997-3.997v-49.965c0-2.209,1.788-3.997,3.997-3.997
		s3.997,1.788,3.997,3.997v49.965C251.819,509.847,250.032,511.635,247.822,511.635z"/>
	<path style="fill:#116FFF;" d="M4.012,239.83c-2.21,0-3.997-1.788-3.997-3.998c0-15.426,12.553-27.98,27.979-27.98
		c2.209,0,3.997,1.788,3.997,3.997c0,2.209-1.788,3.997-3.997,3.997c-11.02,0-19.985,8.962-19.985,19.986
		C8.009,238.042,6.221,239.83,4.012,239.83z"/>
	<path style="fill:#116FFF;" d="M27.979,263.812C12.553,263.812,0,251.258,0,235.832c0-2.209,1.787-3.997,3.997-3.997
		c2.209,0,3.997,1.788,3.997,3.997c0,11.023,8.966,19.986,19.985,19.986c2.209,0,3.997,1.788,3.997,3.997
		C31.976,262.025,30.189,263.812,27.979,263.812z"/>
	<path style="fill:#116FFF;" d="M83.939,215.846H27.995c-2.209,0-3.997-1.788-3.997-3.997c0-2.209,1.788-3.997,3.997-3.997h55.944
		c2.21,0,3.998,1.788,3.998,3.997C87.937,214.059,86.149,215.846,83.939,215.846z"/>
	<path style="fill:#116FFF;" d="M483.638,215.846c-2.209,0-3.997-1.788-3.997-3.997c0-2.209,1.788-3.997,3.997-3.997
		c11.023,0,19.986-8.962,19.986-19.986c0-2.209,1.787-3.997,3.997-3.997c2.209,0,3.997,1.788,3.997,3.997
		C511.619,203.293,499.065,215.846,483.638,215.846z"/>
	<path style="fill:#116FFF;" d="M507.637,191.864c-2.21,0-3.997-1.788-3.997-3.998c0-11.023-8.963-19.986-19.986-19.986
		c-2.209,0-3.997-1.788-3.997-3.997c0-2.209,1.788-3.997,3.997-3.997c15.427,0,27.98,12.554,27.98,27.98
		C511.634,190.076,509.846,191.864,507.637,191.864z"/>
	<path style="fill:#116FFF;" d="M483.638,215.846h-39.955c-2.21,0-3.998-1.788-3.998-3.997c0-2.209,1.788-3.997,3.998-3.997h39.955
		c2.209,0,3.997,1.788,3.997,3.997C487.635,214.059,485.847,215.846,483.638,215.846z"/>
	<path style="fill:#116FFF;" d="M4.012,359.744c-2.21,0-3.997-1.788-3.997-3.997c0-15.427,12.553-27.98,27.979-27.98
		c2.209,0,3.997,1.788,3.997,3.997c0,2.21-1.788,3.998-3.997,3.998c-11.02,0-19.985,8.962-19.985,19.985
		C8.009,357.956,6.221,359.744,4.012,359.744z"/>
	<path style="fill:#116FFF;" d="M83.939,335.761H27.995c-2.209,0-3.997-1.788-3.997-3.998c0-2.209,1.788-3.997,3.997-3.997h55.944
		c2.21,0,3.998,1.788,3.998,3.997C87.937,333.973,86.149,335.761,83.939,335.761z"/>
	<path style="fill:#116FFF;" d="M483.638,335.761c-2.209,0-3.997-1.788-3.997-3.998c0-2.209,1.788-3.997,3.997-3.997
		c11.023,0,19.986-8.962,19.986-19.985c0-2.209,1.787-3.997,3.997-3.997c2.209,0,3.997,1.788,3.997,3.997
		C511.619,323.208,499.065,335.761,483.638,335.761z"/>
	<path style="fill:#116FFF;" d="M507.637,311.778c-2.21,0-3.997-1.788-3.997-3.997c0-11.023-8.963-19.986-19.986-19.986
		c-2.209,0-3.997-1.787-3.997-3.996c0-2.21,1.788-3.998,3.997-3.998c15.427,0,27.98,12.554,27.98,27.98
		C511.634,309.99,509.846,311.778,507.637,311.778z"/>
	<path style="fill:#116FFF;" d="M483.638,335.761h-103.91c-2.209,0-3.997-1.788-3.997-3.998c0-2.209,1.788-3.997,3.997-3.997h103.91
		c2.209,0,3.997,1.788,3.997,3.997C487.635,333.973,485.847,335.761,483.638,335.761z"/>
	<path style="fill:#116FFF;" d="M411.706,215.846H267.808c-2.209,0-3.997-1.788-3.997-3.997c0-2.209,1.788-3.997,3.997-3.997
		h143.897c2.209,0,3.997,1.788,3.997,3.997C415.703,214.059,413.915,215.846,411.706,215.846z"/>
	<path style="fill:#116FFF;" d="M411.706,239.83H267.808c-2.209,0-3.997-1.788-3.997-3.998c0-2.21,1.788-3.997,3.997-3.997h143.897
		c2.209,0,3.997,1.788,3.997,3.997C415.702,238.041,413.915,239.83,411.706,239.83z"/>
	<path style="fill:#116FFF;" d="M411.706,263.812H267.808c-2.209,0-3.997-1.787-3.997-3.997c0-2.209,1.788-3.997,3.997-3.997
		h143.897c2.209,0,3.997,1.788,3.997,3.997C415.703,262.025,413.915,263.812,411.706,263.812z"/>
	<path style="fill:#116FFF;" d="M411.706,287.802H267.808c-2.209,0-3.997-1.787-3.997-3.996c0-2.21,1.788-3.998,3.997-3.998h143.897
		c2.209,0,3.997,1.788,3.997,3.998C415.703,286.015,413.915,287.802,411.706,287.802z"/>
	<path style="fill:#116FFF;" d="M411.706,311.778H267.808c-2.209,0-3.997-1.788-3.997-3.997s1.788-3.997,3.997-3.997h143.897
		c2.209,0,3.997,1.788,3.997,3.997S413.915,311.778,411.706,311.778z"/>
	<path style="fill:#116FFF;" d="M347.752,335.761h-79.943c-2.209,0-3.997-1.788-3.997-3.998c0-2.209,1.788-3.997,3.997-3.997h79.943
		c2.209,0,3.996,1.788,3.996,3.997C351.748,333.973,349.961,335.761,347.752,335.761z"/>
	<path style="fill:#116FFF;" d="M4.012,511.635c-2.21,0-3.997-1.788-3.997-3.997V355.747c0-2.21,1.787-3.997,3.997-3.997
		c2.209,0,3.997,1.787,3.997,3.997v151.891C8.009,509.847,6.221,511.635,4.012,511.635z"/>
</g>
<g>
</g>
<g>
</g>
<g>
</g>
<g>
</g>
<g>
</g>
<g>
</g>
<g>
</g>
<g>
</g>
<g>
</g>
<g>
</g>
<g>
</g>
<g>
</g>
<g>
</g>
<g>
</g>
<g>
</g>
</svg>
