<svg height="480pt" viewBox="0 0 480 480" width="480pt" xmlns="http://www.w3.org/2000/svg"><path d="m472 456v16h-464v-40h464zm0 0" fill="#9bc9ff"/><path d="m472 8v64h-464v-64zm0 0" fill="#9bc9ff"/><path d="m360 240c0 66.273438-53.726562 120-120 120s-120-53.726562-120-120 53.726562-120 120-120 120 53.726562 120 120zm0 0" fill="#9bc9ff"/><g fill="#4f9af5"><path d="m181.65625 242.34375-11.3125 11.3125 45.65625 45.65625 101.65625-101.65625-11.3125-11.3125-90.34375 90.34375zm0 0"/><path d="m112 240c0 70.691406 57.308594 128 128 128s128-57.308594 128-128-57.308594-128-128-128c-70.65625.082031-127.917969 57.34375-128 128zm240 0c0 61.855469-50.144531 112-112 112s-112-50.144531-112-112 50.144531-112 112-112c61.828125.066406 111.933594 50.171875 112 112zm0 0"/><path d="m0 0v480h480v-24h-16v8h-448v-24h464v-24h-16v8h-448v-344h448v288h16v-368zm464 64h-448v-48h448zm0 0"/><path d="m464 384h16v16h-16zm0 0"/><path d="m32 32h16v16h-16zm0 0"/><path d="m64 32h16v16h-16zm0 0"/><path d="m96 32h16v16h-16zm0 0"/><path d="m128 32h16v16h-16zm0 0"/><path d="m448 136v-40h-40v16h24v24zm0 0"/><path d="m32 96h40v16h-40zm0 0"/><path d="m32 128h40v16h-40zm0 0"/><path d="m32 368v40h40v-16h-24v-24zm0 0"/></g></svg>