<svg height="480pt" viewBox="0 0 480 480" width="480pt" xmlns="http://www.w3.org/2000/svg"><path d="m16 432h-8v40h464v-40zm0 0" fill="#9bc9ff"/><path d="m8 8v64h464v-64zm0 0" fill="#9bc9ff"/><path d="m344 240c0 57.4375-46.5625 104-104 104s-104-46.5625-104-104 46.5625-104 104-104 104 46.5625 104 104zm0 0" fill="#9bc9ff"/><g fill="#4f9af5"><path d="m128 240c0 61.855469 50.144531 112 112 112s112-50.144531 112-112-50.144531-112-112-112c-61.828125.066406-111.933594 50.171875-112 112zm208 0c0 53.019531-42.980469 96-96 96s-96-42.980469-96-96 42.980469-96 96-96c52.996094.058594 95.941406 43.003906 96 96zm0 0"/><path d="m240 288c-26.5-.027344-47.972656-21.5-48-48h-16c0 35.347656 28.652344 64 64 64s64-28.652344 64-64h-16c-.027344 26.5-21.5 47.972656-48 48zm0 0"/><path d="m200 192h24v24h-24zm0 0"/><path d="m256 192h24v24h-24zm0 0"/><path d="m0 0v480h480v-24h-16v8h-448v-24h464v-24h-16v8h-448v-344h448v288h16v-368zm464 64h-448v-48h448zm0 0"/><path d="m464 384h16v16h-16zm0 0"/><path d="m32 32h16v16h-16zm0 0"/><path d="m64 32h16v16h-16zm0 0"/><path d="m96 32h16v16h-16zm0 0"/><path d="m128 32h16v16h-16zm0 0"/><path d="m448 136v-40h-40v16h24v24zm0 0"/><path d="m32 96h40v16h-40zm0 0"/><path d="m32 128h40v16h-40zm0 0"/><path d="m32 368v40h40v-16h-24v-24zm0 0"/></g></svg>