<?xml version="1.0" encoding="iso-8859-1"?>
<!-- Generator: Adobe Illustrator 19.0.0, SVG Export Plug-In . SVG Version: 6.00 Build 0)  -->
<svg version="1.1" id="Capa_1" xmlns="http://www.w3.org/2000/svg" xmlns:xlink="http://www.w3.org/1999/xlink" x="0px" y="0px"
	 viewBox="0 0 511.997 511.997" style="enable-background:new 0 0 511.997 511.997;" xml:space="preserve">
<path style="fill:#94C1FF;" d="M123.981,267.997v15.998h-7.999c-4.397,0-7.998-3.602-7.998-7.999s3.601-7.999,7.998-7.999H123.981z"
	/>
<path style="fill:#D7E9FF;" d="M155.976,267.997c4.397,0,7.999,3.602,7.999,7.999s-3.601,7.999-7.999,7.999h-31.995v-15.998H155.976
	z"/>
<g>
	<path style="fill:#FFFFFF;" d="M179.972,299.992H91.986v-63.99h15.998h23.996h47.992V299.992z M115.982,283.995h7.999h31.995
		c4.397,0,7.999-3.602,7.999-7.999s-3.601-7.999-7.999-7.999h-31.995h-7.999c-4.397,0-7.998,3.602-7.998,7.999
		S111.584,283.995,115.982,283.995z"/>
	<path style="fill:#FFFFFF;" d="M115.982,188.01c4.398,0,7.999,3.602,7.999,7.999s-3.601,7.999-7.999,7.999
		c-4.397,0-7.998-3.601-7.998-7.999S111.584,188.01,115.982,188.01z"/>
</g>
<polygon style="fill:#D7E9FF;" points="123.981,216.005 135.819,230.878 131.98,236.002 107.984,236.002 "/>
<polygon style="fill:#FFFFFF;" points="155.976,204.007 179.972,236.002 131.98,236.002 135.819,230.878 "/>
<path style="fill:#94C1FF;" d="M115.982,204.007c4.398,0,7.999-3.601,7.999-7.999s-3.601-7.999-7.999-7.999
	c-4.397,0-7.998,3.602-7.998,7.999S111.584,204.007,115.982,204.007z M91.986,172.013h87.986v63.989l-23.996-31.995l-20.157,26.871
	l-11.838-14.873l-15.997,19.997H91.986V172.013z"/>
<rect x="91.83" y="172.01" style="fill:#D7E9FF;" width="7.999" height="63.989"/>
<rect x="171.81" y="172.01" style="fill:#5C9EFF;" width="7.999" height="64.57"/>
<path style="fill:#94C1FF;" d="M244.079,267.997v15.998h-7.999c-4.398,0-7.999-3.602-7.999-7.999s3.601-7.999,7.999-7.999H244.079z"
	/>
<path style="fill:#D7E9FF;" d="M276.074,267.997c4.397,0,7.999,3.602,7.999,7.999s-3.602,7.999-7.999,7.999h-31.995v-15.998H276.074
	z"/>
<g>
	<path style="fill:#FFFFFF;" d="M300.07,299.992h-87.986v-63.99h15.998h23.996h47.993v63.99H300.07z M236.08,283.995h7.999h31.996
		c4.397,0,7.999-3.602,7.999-7.999s-3.602-7.999-7.999-7.999h-31.996h-7.999c-4.398,0-7.999,3.602-7.999,7.999
		S231.682,283.995,236.08,283.995z"/>
	<path style="fill:#FFFFFF;" d="M236.08,188.01c4.398,0,7.999,3.602,7.999,7.999s-3.601,7.999-7.999,7.999s-7.999-3.601-7.999-7.999
		S231.682,188.01,236.08,188.01z"/>
</g>
<polygon style="fill:#D7E9FF;" points="244.079,216.005 255.916,230.878 252.078,236.002 228.082,236.002 "/>
<polygon style="fill:#FFFFFF;" points="276.074,204.007 300.07,236.002 252.078,236.002 255.916,230.878 "/>
<path style="fill:#94C1FF;" d="M236.08,204.007c4.398,0,7.999-3.601,7.999-7.999s-3.601-7.999-7.999-7.999s-7.999,3.602-7.999,7.999
	S231.682,204.007,236.08,204.007z M212.084,172.013h87.986v63.989l-23.996-31.995l-20.158,26.871l-11.838-14.873l-15.997,19.997
	h-15.998L212.084,172.013L212.084,172.013z"/>
<rect x="211.93" y="172.01" style="fill:#D7E9FF;" width="7.999" height="63.989"/>
<rect x="291.91" y="172.01" style="fill:#5C9EFF;" width="7.999" height="63.989"/>
<path style="fill:#94C1FF;" d="M364.177,267.997v15.998h-7.998c-4.398,0-7.999-3.602-7.999-7.999s3.601-7.999,7.999-7.999H364.177z"
	/>
<path style="fill:#D7E9FF;" d="M396.172,267.997c4.397,0,7.999,3.602,7.999,7.999s-3.602,7.999-7.999,7.999h-31.995v-15.998H396.172
	z"/>
<g>
	<path style="fill:#FFFFFF;" d="M420.168,299.992h-87.985v-63.99h15.997h23.996h47.992V299.992L420.168,299.992z M356.179,283.995
		h7.998h31.995c4.397,0,7.999-3.602,7.999-7.999s-3.602-7.999-7.999-7.999h-31.995h-7.998c-4.398,0-7.999,3.602-7.999,7.999
		S351.78,283.995,356.179,283.995z"/>
	<path style="fill:#FFFFFF;" d="M356.179,188.01c4.397,0,7.998,3.602,7.998,7.999s-3.601,7.999-7.998,7.999
		c-4.398,0-7.999-3.601-7.999-7.999S351.78,188.01,356.179,188.01z"/>
</g>
<polygon style="fill:#D7E9FF;" points="364.177,216.005 376.019,230.878 372.176,236.002 348.18,236.002 "/>
<polygon style="fill:#FFFFFF;" points="396.172,204.007 420.168,236.002 372.176,236.002 376.019,230.878 "/>
<path style="fill:#94C1FF;" d="M356.179,204.007c4.397,0,7.998-3.601,7.998-7.999s-3.601-7.999-7.998-7.999
	c-4.398,0-7.999,3.602-7.999,7.999S351.78,204.007,356.179,204.007z M332.183,172.013h87.985v63.989l-23.996-31.995l-20.153,26.871
	l-11.842-14.873l-15.997,19.997h-15.997V172.013z"/>
<rect x="332.03" y="172.01" style="fill:#D7E9FF;" width="7.998" height="63.989"/>
<rect x="412.01" y="172.01" style="fill:#5C9EFF;" width="7.999" height="63.989"/>
<path style="fill:#D7E9FF;" d="M35.995,60.108c0-13.193,10.799-23.996,23.996-23.996h391.938c13.201,0,23.996,10.803,23.996,23.996
	v7.999v7.843H36.476l-0.48-7.843v-7.999H35.995z"/>
<path style="fill:#94C1FF;" d="M223.965,123.942c0,8.795-7.12,15.997-15.998,15.997c-8.799,0-15.997-7.202-15.997-15.997
	c0,8.795-7.12,15.997-15.998,15.997c-8.799,0-15.998-7.202-15.998-15.997c0,8.795-7.12,15.997-15.997,15.997
	c-8.8,0-15.998-7.202-15.998-15.997c0,8.795-7.12,15.997-15.998,15.997c-8.799,0-15.997-7.202-15.997-15.997
	c0,8.795-7.12,15.997-15.998,15.997c-8.799,0-15.997-7.202-15.997-15.997c0,8.795-7.12,15.997-15.998,15.997
	c-1.121,0-2.16-0.078-3.199-0.32c-7.28-1.523-12.799-7.999-12.799-15.677c0,8.795-7.12,15.997-15.997,15.997
	c-4.8,0-9.038-2.078-11.998-5.444v-26.55L36.473,75.95h439.449h0.477l31.519,31.995v26.55h0.078
	c-2.961,3.367-7.28,5.444-12.076,5.444c-8.796,0-15.998-7.202-15.998-15.997c0,8.795-7.116,15.997-15.997,15.997
	c-1.117,0-2.156-0.078-3.203-0.32c-7.271-1.523-12.795-7.999-12.795-15.677c0,8.795-7.115,15.997-15.997,15.997
	c-8.795,0-15.997-7.202-15.997-15.997c0,8.795-7.116,15.997-15.998,15.997c-8.795,0-15.997-7.202-15.997-15.997
	c0,8.795-7.116,15.997-15.997,15.997c-8.796,0-15.998-7.202-15.998-15.997c0,8.795-7.115,15.997-15.997,15.997
	c-8.796,0-15.997-7.202-15.997-15.997c0,8.795-7.116,15.997-15.998,15.997c-8.795,0-15.997-7.202-15.997-15.997
	c0,8.795-7.116,15.997-15.997,15.997c-8.8,0-15.999-7.202-15.999-15.997c0,8.795-7.12,15.997-15.997,15.997
	C231.163,139.939,223.965,132.737,223.965,123.942z"/>
<path style="fill:#FFFFFF;" d="M431.932,139.939c8.882,0,15.997-7.202,15.997-15.997c0,7.678,5.523,14.154,12.795,15.677
	l-8.795,8.319v184.127h-195.97H59.991V147.938l-11.998-7.999c8.877,0,15.998-7.202,15.998-15.997
	c0,8.795,7.198,15.997,15.997,15.997c8.878,0,15.998-7.202,15.998-15.997c0,8.795,7.198,15.997,15.997,15.997
	c8.877,0,15.998-7.202,15.998-15.997c0,8.795,7.198,15.997,15.998,15.997c8.877,0,15.997-7.202,15.997-15.997
	c0,8.795,7.198,15.997,15.998,15.997c8.877,0,15.998-7.202,15.998-15.997c0,8.795,7.198,15.997,15.997,15.997
	c8.878,0,15.998-7.202,15.998-15.997c0,8.795,7.198,15.997,15.998,15.997c8.877,0,15.997-7.202,15.997-15.997
	c0,8.795,7.199,15.997,15.999,15.997c8.881,0,15.997-7.202,15.997-15.997c0,8.795,7.202,15.997,15.997,15.997
	c8.882,0,15.998-7.202,15.998-15.997c0,8.795,7.201,15.997,15.997,15.997c8.882,0,15.997-7.202,15.997-15.997
	c0,8.795,7.202,15.997,15.998,15.997c8.881,0,15.997-7.202,15.997-15.997c0,8.795,7.202,15.997,15.997,15.997
	c8.882,0,15.998-7.202,15.998-15.997C415.935,132.737,423.137,139.939,431.932,139.939z M420.09,299.992v-63.99v-63.989h-87.985
	v63.989v63.99H420.09z M299.953,299.992v-63.99v-63.989h-87.986v63.989v63.99H299.953z M179.972,299.992v-63.99v-63.989H91.986
	v63.989v63.99H179.972z"/>
<path style="fill:#94C1FF;" d="M315.95,403.897l15.998,71.988H180.05l15.997-71.988C234.842,403.897,277.16,403.897,315.95,403.897z
	"/>
<path style="fill:#D7E9FF;" d="M315.95,403.897c-38.79,0-81.108,0-119.903,0c-71.188,0-130.775,0-136.056,0
	c-13.439,0-23.996-10.483-23.996-23.996v-15.842c0,13.201,10.799,23.996,23.996,23.996h195.968h195.97
	c13.201,0,23.996-10.795,23.996-23.996v15.842c0,13.513-10.475,23.996-23.996,23.996
	C446.648,403.897,387.143,403.897,315.95,403.897z"/>
<path style="fill:#FFFFFF;" d="M255.959,347.906c6.64,0,11.999,5.358,11.999,11.998s-5.358,11.998-11.999,11.998
	c-6.558,0-11.998-5.358-11.998-11.998S249.402,347.906,255.959,347.906z"/>
<path style="fill:#D7E9FF;" d="M463.927,139.939c-1.117,0-2.156-0.078-3.203-0.32l-8.795-7.678v200.125h-195.97H59.991V131.941
	l-11.998,7.999c-1.121,0-2.16-0.078-3.199-0.32l-8.799-7.678v231.962v0.156c0,13.201,10.799,23.996,23.996,23.996h195.968h195.97
	c13.201,0,23.996-10.795,23.996-23.996V131.941L463.927,139.939z M255.959,371.902c-6.558,0-11.998-5.358-11.998-11.998
	s5.44-11.998,11.998-11.998c6.64,0,11.999,5.358,11.999,11.998S262.6,371.902,255.959,371.902z"/>
<g>
	<path style="fill:#94C1FF;" d="M15.999,139.939c8.877,0,15.997-7.202,15.997-15.997c0,7.678,5.519,14.154,12.799,15.677
		c1.039,0.242,2.078,0.32,3.199,0.32c8.877,0,15.998-7.202,15.998-15.997c0,8.795,7.198,15.997,15.997,15.997
		c8.878,0,15.998-7.202,15.998-15.997c0,8.795,7.198,15.997,15.997,15.997c8.877,0,15.998-7.202,15.998-15.997
		c0,8.795,7.198,15.997,15.998,15.997c8.877,0,15.997-7.202,15.997-15.997c0,8.795,7.198,15.997,15.998,15.997
		c8.877,0,15.998-7.202,15.998-15.997c0,8.795,7.198,15.997,15.997,15.997c8.878,0,15.998-7.202,15.998-15.997
		c0,8.795,7.198,15.997,15.998,15.997c8.877,0,15.997-7.202,15.997-15.997c0,8.795,7.199,15.997,15.999,15.997
		c8.881,0,15.997-7.202,15.997-15.997c0,8.795,7.202,15.997,15.997,15.997c8.882,0,15.998-7.202,15.998-15.997
		c0,8.795,7.201,15.997,15.997,15.997c8.882,0,15.997-7.202,15.997-15.997c0,8.795,7.202,15.997,15.998,15.997
		c8.881,0,15.997-7.202,15.997-15.997c0,8.795,7.202,15.997,15.997,15.997c8.882,0,15.998-7.202,15.998-15.997
		c0,8.795,7.202,15.997,15.997,15.997c8.882,0,15.997-7.202,15.997-15.997c0,7.678,5.523,14.154,12.795,15.677
		c1.047,0.242,2.086,0.32,3.203,0.32c8.881,0,15.997-7.202,15.997-15.997c0,8.795,7.202,15.997,15.998,15.997
		c4.796,0,9.115-2.078,12.076-5.444h-0.078v-26.55H4v26.55C6.96,137.862,11.199,139.939,15.999,139.939z"/>
	<path style="fill:#94C1FF;" d="M460.724,139.619l-8.795-7.678v2.484c-2.469-2.82-4-6.476-4-10.482
		c0,8.795-7.115,15.997-15.997,15.997c-8.795,0-15.997-7.202-15.997-15.997c0,8.795-7.116,15.997-15.998,15.997
		c-8.795,0-15.997-7.202-15.997-15.997c0,8.795-7.116,15.997-15.997,15.997c-8.796,0-15.998-7.202-15.998-15.997
		c0,8.795-7.115,15.997-15.997,15.997c-8.796,0-15.997-7.202-15.997-15.997c0,8.795-7.116,15.997-15.998,15.997
		c-8.795,0-15.997-7.202-15.997-15.997c0,8.795-7.116,15.997-15.997,15.997c-8.8,0-15.999-7.202-15.999-15.997
		c0,8.795-7.12,15.997-15.997,15.997c-8.8,0-15.998-7.202-15.998-15.997c0,8.795-7.12,15.997-15.998,15.997
		c-8.799,0-15.997-7.202-15.997-15.997c0,8.795-7.12,15.997-15.998,15.997c-8.799,0-15.998-7.202-15.998-15.997
		c0,8.795-7.12,15.997-15.997,15.997c-8.8,0-15.998-7.202-15.998-15.997c0,8.795-7.12,15.997-15.998,15.997
		c-8.799,0-15.997-7.202-15.997-15.997c0,8.795-7.12,15.997-15.998,15.997c-8.799,0-15.997-7.202-15.997-15.997
		c0,4.022-1.539,7.663-4,10.482v-2.484l-11.998,7.999c-1.121,0-2.16-0.078-3.199-0.32l-8.799-7.678v10.483
		c2.265,2.585,5.32,4.468,8.799,5.194c1.039,0.242,2.078,0.32,3.199,0.32c8.877,0,15.998-7.202,15.998-15.998
		c0,8.795,7.198,15.998,15.997,15.998c8.878,0,15.998-7.202,15.998-15.998c0,8.795,7.198,15.998,15.997,15.998
		c8.877,0,15.998-7.202,15.998-15.998c0,8.795,7.198,15.998,15.998,15.998c8.877,0,15.997-7.202,15.997-15.998
		c0,8.795,7.198,15.998,15.998,15.998c8.877,0,15.998-7.202,15.998-15.998c0,8.795,7.198,15.998,15.997,15.998
		c8.878,0,15.998-7.202,15.998-15.998c0,8.795,7.198,15.998,15.998,15.998c8.877,0,15.997-7.202,15.997-15.998
		c0,8.795,7.199,15.998,15.999,15.998c8.881,0,15.997-7.202,15.997-15.998c0,8.795,7.202,15.998,15.997,15.998
		c8.882,0,15.998-7.202,15.998-15.998c0,8.795,7.201,15.998,15.997,15.998c8.882,0,15.997-7.202,15.997-15.998
		c0,8.795,7.202,15.998,15.998,15.998c8.881,0,15.997-7.202,15.997-15.998c0,8.795,7.202,15.998,15.997,15.998
		c8.882,0,15.998-7.202,15.998-15.998c0,8.795,7.202,15.998,15.997,15.998c8.882,0,15.997-7.202,15.997-15.998
		c0,7.678,5.523,14.154,12.795,15.677c1.047,0.242,2.086,0.32,3.203,0.32c4.819,0,9.076-2.164,11.998-5.515V131.94l-11.998,7.999
		C462.81,139.939,461.77,139.861,460.724,139.619z"/>
	<rect x="36.476" y="68.11" style="fill:#94C1FF;" width="439.45" height="7.843"/>
</g>
<path style="fill:#D7E9FF;" d="M11.999,134.495v-26.55L44.474,75.95h-7.999L4,107.945v26.55c2.96,3.367,7.198,5.444,11.998,5.444
	c1.382,0,2.703-0.234,3.979-0.562C16.854,138.573,14.096,136.878,11.999,134.495z"/>
<path style="fill:#5C9EFF;" d="M500.632,134.495v-26.55L468.153,75.95h7.999l32.479,31.995v26.55
	c-2.96,3.367-7.201,5.444-11.998,5.444c-1.382,0-2.702-0.234-3.983-0.562C495.773,138.573,498.538,136.878,500.632,134.495z"/>
<g style="opacity:0.5;">
	<path style="fill:#FFFFFF;" d="M43.994,68.107v-7.999c0-13.193,10.799-23.996,23.996-23.996h-7.999
		c-13.197,0-23.996,10.803-23.996,23.996v7.999l0.48,7.843v-7.843H43.994z"/>
</g>
<path style="fill:#94C1FF;" d="M452.726,36.112h-7.999c13.201,0,23.996,10.803,23.996,23.996v7.999h7.202v7.843h0.312l0.484-7.843
	v-7.999C476.722,46.916,465.927,36.112,452.726,36.112z"/>
<g>
	<path style="fill:#FFFFFF;" d="M43.994,138.916l-7.999-6.975L43.994,138.916z"/>
	<path style="fill:#FFFFFF;" d="M43.994,364.06v-0.156V147.306c-3.124-0.844-5.921-2.508-7.999-4.882v221.479v0.156
		c0,13.201,10.799,23.996,23.996,23.996h7.999C54.793,388.056,43.994,377.261,43.994,364.06z"/>
</g>
<g>
	<path style="fill:#94C1FF;" d="M468.152,139.486l7.999-6.983L468.152,139.486z"/>
	<path style="fill:#94C1FF;" d="M468.152,364.63v-0.164V147.868c3.125-0.836,5.921-2.508,7.999-4.874v221.472v0.164
		c0,13.193-10.803,23.996-23.996,23.996h-7.999C457.35,388.626,468.152,377.823,468.152,364.63z"/>
</g>
<polygon style="fill:#5C9EFF;" points="317.731,411.927 194.263,411.927 196.047,403.897 315.95,403.897 "/>
<path style="fill:#D7E9FF;" d="M451.929,134.425c0,0,0,0-0.008,0c-1.211-1.391-2.188-2.968-2.875-4.702
	c-0.008-0.039-0.031-0.07-0.047-0.109c-0.297-0.773-0.523-1.578-0.695-2.406c-0.031-0.125-0.078-0.242-0.102-0.367
	c-0.172-0.937-0.273-1.905-0.273-2.897c0,8.795-7.115,15.997-15.997,15.997c-8.795,0-15.997-7.202-15.997-15.997
	c0,8.795-7.116,15.997-15.998,15.997c-8.795,0-15.997-7.202-15.997-15.997c0,8.795-7.116,15.997-15.997,15.997
	c-8.796,0-15.998-7.202-15.998-15.997c0,8.795-7.115,15.997-15.997,15.997c-8.796,0-15.997-7.202-15.997-15.997
	c0,8.795-7.116,15.997-15.998,15.997c-8.795,0-15.997-7.202-15.997-15.997c0,8.795-7.116,15.997-15.997,15.997
	c-8.8,0-15.999-7.202-15.999-15.997c0,8.795-7.12,15.997-15.997,15.997c-8.8,0-15.998-7.202-15.998-15.997
	c0,8.795-7.12,15.997-15.998,15.997c-8.799,0-15.997-7.202-15.997-15.997c0,8.795-7.12,15.997-15.998,15.997
	c-8.799,0-15.998-7.202-15.998-15.997c0,8.795-7.12,15.997-15.997,15.997c-8.8,0-15.998-7.202-15.998-15.997
	c0,8.795-7.12,15.997-15.998,15.997c-8.799,0-15.997-7.202-15.997-15.997c0,8.795-7.12,15.997-15.998,15.997
	c-8.799,0-15.997-7.202-15.997-15.997c0,1.039-0.109,2.046-0.305,3.022c-0.129,0.68-0.355,1.32-0.57,1.969
	c-0.086,0.258-0.141,0.523-0.238,0.773c-0.328,0.844-0.738,1.64-1.199,2.406c-0.012,0.023-0.02,0.039-0.031,0.062
	c-0.464,0.765-1.074,1.421-1.656,2.101v8.062c2.449-2.797,4-6.397,4-10.397c0,8.795,7.198,15.998,15.997,15.998
	c8.878,0,15.998-7.202,15.998-15.998c0,8.795,7.198,15.998,15.997,15.998c8.877,0,15.998-7.202,15.998-15.998
	c0,8.795,7.198,15.998,15.998,15.998c8.877,0,15.997-7.202,15.997-15.998c0,8.795,7.198,15.998,15.998,15.998
	c8.877,0,15.998-7.202,15.998-15.998c0,8.795,7.198,15.998,15.997,15.998c8.878,0,15.998-7.202,15.998-15.998
	c0,8.795,7.198,15.998,15.998,15.998c8.877,0,15.997-7.202,15.997-15.998c0,8.795,7.199,15.998,15.999,15.998
	c8.881,0,15.997-7.202,15.997-15.998c0,8.795,7.202,15.998,15.997,15.998c8.882,0,15.998-7.202,15.998-15.998
	c0,8.795,7.201,15.998,15.997,15.998c8.882,0,15.997-7.202,15.997-15.998c0,8.795,7.202,15.998,15.998,15.998
	c8.881,0,15.997-7.202,15.997-15.998c0,8.795,7.202,15.998,15.997,15.998c8.882,0,15.998-7.202,15.998-15.998
	c0,8.795,7.202,15.998,15.997,15.998c8.882,0,15.997-7.202,15.997-15.998c0,3.992,1.531,7.624,4,10.436v-7.953H451.929z"/>
<g>
	<path style="fill:#116FFF;" d="M255.959,375.901c-8.822,0-15.997-7.178-15.997-15.997c0-8.827,7.175-15.997,15.997-15.997
		c8.82,0,15.999,7.17,15.999,15.997C271.958,368.724,264.779,375.901,255.959,375.901z M255.959,351.905
		c-4.409,0-7.999,3.586-7.999,7.999c0,4.405,3.589,7.999,7.999,7.999c4.411,0,8-3.594,8-7.999
		C263.959,355.491,260.37,351.905,255.959,351.905z"/>
	<path style="fill:#116FFF;" d="M180.054,479.885c-0.289,0-0.578-0.031-0.871-0.094c-2.156-0.484-3.515-2.616-3.039-4.772
		l15.998-71.988c0.48-2.156,2.647-3.484,4.772-3.039c2.156,0.477,3.515,2.617,3.039,4.773l-15.998,71.988
		C183.541,478.611,181.886,479.885,180.054,479.885z"/>
	<path style="fill:#116FFF;" d="M331.948,479.885c-1.836,0-3.492-1.273-3.906-3.132l-15.997-71.988
		c-0.477-2.156,0.883-4.297,3.038-4.773c2.188-0.453,4.297,0.891,4.773,3.039l15.997,71.988c0.477,2.156-0.883,4.288-3.038,4.772
		C332.526,479.853,332.229,479.885,331.948,479.885z"/>
	<path style="fill:#116FFF;" d="M343.946,479.885H167.974c-2.211,0-4-1.788-4-3.999s1.789-4,4-4h175.972
		c2.211,0,3.999,1.789,3.999,4S346.157,479.885,343.946,479.885z"/>
	<path style="fill:#116FFF;" d="M451.929,336.064H59.991c-2.21,0-4-1.789-4-3.999V147.938c0-2.211,1.789-4,4-4s4,1.789,4,4v180.127
		h383.938V147.938c0-2.211,1.789-4,4-4s3.999,1.789,3.999,4v184.127C455.928,334.275,454.14,336.064,451.929,336.064z"/>
	<path style="fill:#116FFF;" d="M35.995,367.903c-2.21,0-4-1.789-4-4V147.938c0-2.211,1.789-4,4-4s4,1.789,4,4v215.965
		C39.995,366.114,38.206,367.903,35.995,367.903z"/>
	<path style="fill:#116FFF;" d="M451.929,392.056H59.991c-15.435,0-27.996-12.561-27.996-27.996c0-2.211,1.789-3.999,4-3.999
		s4,1.788,4,3.999c0,11.029,8.971,19.997,19.997,19.997h391.937c11.029,0,19.997-8.968,19.997-19.997V147.938
		c0-2.211,1.788-4,3.999-4s3.999,1.789,3.999,4v216.121C479.924,379.495,467.364,392.056,451.929,392.056z"/>
	<path style="fill:#116FFF;" d="M475.925,64.108c-2.211,0-3.999-1.789-3.999-4c0-11.021-8.968-19.997-19.997-19.997H59.991
		c-11.025,0-19.997,8.975-19.997,19.997c0,2.211-1.789,4-4,4s-4-1.789-4-4c0-15.435,12.561-27.995,27.996-27.995h391.939
		c15.436,0,27.995,12.561,27.995,27.995C479.924,62.319,478.136,64.108,475.925,64.108z"/>
	<path style="fill:#116FFF;" d="M451.929,407.896H59.991c-15.697,0-27.996-12.303-27.996-27.995v-15.842
		c0-2.211,1.789-4.077,4-4.077s4,1.71,4,3.921v15.998c0,11.209,8.784,19.996,19.997,19.996h391.937
		c11.396,0,19.997-8.6,19.997-19.996v-15.842c0-2.211,1.788-3.999,3.999-3.999s3.999,1.788,3.999,3.999v15.842
		C479.924,395.594,467.629,407.896,451.929,407.896z"/>
	<path style="fill:#116FFF;" d="M179.972,303.991H91.986c-2.21,0-3.999-1.789-3.999-3.999V172.013c0-2.211,1.789-4,3.999-4h87.986
		c2.21,0,3.999,1.789,3.999,4v127.979C183.971,302.202,182.183,303.991,179.972,303.991z M95.986,295.993h79.987V176.012H95.986
		V295.993z"/>
	<path style="fill:#116FFF;" d="M155.976,287.994h-39.994c-6.616,0-11.998-5.382-11.998-11.998s5.382-11.998,11.998-11.998h39.994
		c6.616,0,11.998,5.382,11.998,11.998S162.592,287.994,155.976,287.994z M115.982,271.997c-2.206,0-3.999,1.788-3.999,3.999
		c0,2.202,1.793,3.999,3.999,3.999h39.994c2.242,0,3.999-1.758,3.999-3.999c0-2.242-1.757-3.999-3.999-3.999H115.982z"/>
	<path style="fill:#116FFF;" d="M179.972,240.002H91.986c-2.21,0-3.999-1.789-3.999-4c0-2.21,1.789-3.999,3.999-3.999h87.986
		c2.21,0,3.999,1.789,3.999,3.999C183.971,238.213,182.183,240.002,179.972,240.002z"/>
	<path style="fill:#116FFF;" d="M131.976,240.002c-0.84,0-1.684-0.266-2.406-0.805c-1.761-1.336-2.113-3.843-0.785-5.608
		l23.988-31.979c1.52-2.008,4.898-2.016,6.401,0l23.996,31.995c1.328,1.765,0.969,4.272-0.8,5.593
		c-1.773,1.32-4.281,0.969-5.597-0.797l-20.797-27.73l-20.802,27.738C134.385,239.447,133.19,240.002,131.976,240.002z"/>
	<path style="fill:#116FFF;" d="M107.98,240.002c-0.875,0-1.758-0.289-2.496-0.875c-1.722-1.383-2.003-3.898-0.625-5.624
		l15.998-19.997c0.758-0.945,1.906-1.5,3.117-1.5c0.004,0,0.004,0,0.008,0c1.211,0,2.355,0.547,3.113,1.492l11.92,14.794
		c1.386,1.718,1.117,4.242-0.605,5.625c-1.727,1.382-4.242,1.117-5.621-0.609l-8.795-10.913l-12.885,16.107
		C110.315,239.486,109.155,240.002,107.98,240.002z"/>
	<path style="fill:#116FFF;" d="M115.982,208.007c-6.616,0-11.998-5.382-11.998-11.998s5.382-11.998,11.998-11.998
		s11.999,5.382,11.999,11.998S122.598,208.007,115.982,208.007z M115.982,192.009c-2.206,0-3.999,1.789-3.999,4
		c0,2.203,1.793,3.999,3.999,3.999c2.242,0,4-1.757,4-3.999S118.224,192.009,115.982,192.009z"/>
	<path style="fill:#116FFF;" d="M131.98,255.999h-23.996c-2.211,0-4-1.789-4-3.999c0-2.211,1.789-4,4-4h23.996
		c2.21,0,3.999,1.789,3.999,4C135.979,254.21,134.19,255.999,131.98,255.999z"/>
	<path style="fill:#116FFF;" d="M163.975,255.999h-11.998c-2.21,0-4-1.789-4-3.999c0-2.211,1.789-4,4-4h11.998c2.21,0,4,1.789,4,4
		C167.974,254.21,166.185,255.999,163.975,255.999z"/>
	<path style="fill:#116FFF;" d="M123.981,287.994c-2.21,0-3.999-1.789-3.999-3.999v-15.998c0-2.211,1.789-3.999,3.999-3.999
		c2.211,0,4,1.788,4,3.999v15.998C127.98,286.205,126.192,287.994,123.981,287.994z"/>
	<path style="fill:#116FFF;" d="M299.953,303.991h-87.986c-2.21,0-4-1.789-4-3.999V172.013c0-2.211,1.789-4,4-4h87.986
		c2.211,0,3.999,1.789,3.999,4v127.979C303.952,302.202,302.164,303.991,299.953,303.991z M215.966,295.993h79.988V176.012h-79.988
		V295.993L215.966,295.993z"/>
	<path style="fill:#116FFF;" d="M275.957,287.994h-39.994c-6.616,0-11.998-5.382-11.998-11.998s5.382-11.998,11.998-11.998h39.994
		c6.616,0,11.998,5.382,11.998,11.998S282.573,287.994,275.957,287.994z M235.963,271.997c-2.207,0-4,1.788-4,3.999
		c0,2.202,1.793,3.999,4,3.999h39.994c2.241,0,3.999-1.758,3.999-3.999c0-2.242-1.758-3.999-3.999-3.999H235.963z"/>
	<path style="fill:#116FFF;" d="M299.953,240.002h-87.986c-2.21,0-4-1.789-4-4c0-2.21,1.789-3.999,4-3.999h87.986
		c2.211,0,3.999,1.789,3.999,3.999C303.952,238.213,302.164,240.002,299.953,240.002z"/>
	<path style="fill:#116FFF;" d="M251.957,240.002c-0.84,0-1.684-0.266-2.406-0.805c-1.761-1.336-2.112-3.843-0.785-5.608
		l23.989-31.979c1.515-2.016,4.89-2.016,6.404,0l23.996,31.995c1.32,1.765,0.961,4.272-0.805,5.593
		c-1.757,1.32-4.265,0.977-5.6-0.797l-20.794-27.73l-20.802,27.738C254.366,239.447,253.171,240.002,251.957,240.002z"/>
	<path style="fill:#116FFF;" d="M227.96,240.002c-0.875,0-1.758-0.289-2.496-0.875c-1.722-1.383-2.003-3.898-0.625-5.624
		l15.998-19.997c0.758-0.945,1.906-1.5,3.116-1.5c0.004,0,0.004,0,0.008,0c1.211,0,2.355,0.547,3.113,1.492l11.92,14.794
		c1.387,1.718,1.117,4.242-0.605,5.625c-1.727,1.382-4.238,1.117-5.621-0.609l-8.796-10.913l-12.885,16.107
		C230.296,239.486,229.136,240.002,227.96,240.002z"/>
	<path style="fill:#116FFF;" d="M235.963,208.007c-6.616,0-11.998-5.382-11.998-11.998s5.382-11.998,11.998-11.998
		s11.998,5.382,11.998,11.998S242.579,208.007,235.963,208.007z M235.963,192.009c-2.207,0-4,1.789-4,4c0,2.203,1.793,3.999,4,3.999
		c2.242,0,4-1.757,4-3.999C239.962,193.767,238.205,192.009,235.963,192.009z"/>
	<path style="fill:#116FFF;" d="M251.96,255.999h-23.996c-2.211,0-4-1.789-4-3.999c0-2.211,1.789-4,4-4h23.996
		c2.21,0,3.999,1.789,3.999,4C255.959,254.21,254.171,255.999,251.96,255.999z"/>
	<path style="fill:#116FFF;" d="M283.956,255.999h-11.998c-2.211,0-4-1.789-4-3.999c0-2.211,1.789-4,4-4h11.998
		c2.21,0,3.999,1.789,3.999,4C287.955,254.21,286.166,255.999,283.956,255.999z"/>
	<path style="fill:#116FFF;" d="M243.961,287.994c-2.21,0-3.999-1.789-3.999-3.999v-15.998c0-2.211,1.789-3.999,3.999-3.999
		c2.211,0,4,1.788,4,3.999v15.998C247.961,286.205,246.172,287.994,243.961,287.994z"/>
	<path style="fill:#116FFF;" d="M420.09,303.991h-87.985c-2.211,0-4-1.789-4-3.999V172.013c0-2.211,1.789-4,4-4h87.985
		c2.211,0,3.999,1.789,3.999,4v127.979C424.089,302.202,422.301,303.991,420.09,303.991z M336.103,295.993h79.987V176.012h-79.987
		V295.993z"/>
	<path style="fill:#116FFF;" d="M396.094,287.994h-39.993c-6.616,0-11.998-5.382-11.998-11.998s5.382-11.998,11.998-11.998h39.993
		c6.616,0,11.998,5.382,11.998,11.998S402.71,287.994,396.094,287.994z M356.101,271.997c-2.242,0-4,1.757-4,3.999
		c0,2.241,1.758,3.999,4,3.999h39.993c2.203,0,3.999-1.797,3.999-3.999c0-2.211-1.796-3.999-3.999-3.999H356.101z"/>
	<path style="fill:#116FFF;" d="M420.09,240.002h-87.985c-2.211,0-4-1.789-4-4c0-2.21,1.789-3.999,4-3.999h87.985
		c2.211,0,3.999,1.789,3.999,3.999C424.089,238.213,422.301,240.002,420.09,240.002z"/>
	<path style="fill:#116FFF;" d="M372.098,240.002c-0.828,0-1.663-0.258-2.374-0.789c-1.781-1.312-2.156-3.812-0.844-5.593
		l24.02-32.019c0.758-1.008,1.937-1.594,3.194-1.594l0,0c1.258,0,2.445,0.594,3.203,1.602l23.996,31.995
		c1.319,1.765,0.96,4.272-0.805,5.593c-1.758,1.32-4.265,0.977-5.601-0.797l-20.802-27.738l-20.771,27.714
		C374.527,239.439,373.316,240.002,372.098,240.002z"/>
	<path style="fill:#116FFF;" d="M348.102,240.002c-0.883,0-1.758-0.289-2.499-0.875c-1.727-1.383-2-3.898-0.625-5.624l15.997-19.997
		c1.508-1.891,4.726-1.906,6.249,0l11.842,14.794c1.375,1.726,1.102,4.242-0.625,5.625c-1.727,1.375-4.241,1.117-5.624-0.625
		l-8.718-10.897l-12.873,16.099C350.437,239.486,349.273,240.002,348.102,240.002z"/>
	<path style="fill:#116FFF;" d="M356.101,208.007c-6.616,0-11.998-5.382-11.998-11.998s5.382-11.998,11.998-11.998
		s11.998,5.382,11.998,11.998S362.717,208.007,356.101,208.007z M356.101,192.009c-2.242,0-4,1.757-4,4c0,2.242,1.758,3.999,4,3.999
		c2.203,0,3.999-1.796,3.999-3.999C360.1,193.798,358.304,192.009,356.101,192.009z"/>
	<path style="fill:#116FFF;" d="M372.098,255.999h-23.996c-2.21,0-3.999-1.789-3.999-3.999c0-2.211,1.789-4,3.999-4h23.996
		c2.211,0,3.999,1.789,3.999,4C376.097,254.21,374.309,255.999,372.098,255.999z"/>
	<path style="fill:#116FFF;" d="M404.093,255.999h-11.998c-2.211,0-4-1.789-4-3.999c0-2.211,1.789-4,4-4h11.998
		c2.211,0,3.999,1.789,3.999,4C408.092,254.21,406.304,255.999,404.093,255.999z"/>
	<path style="fill:#116FFF;" d="M364.099,287.994c-2.21,0-3.999-1.789-3.999-3.999v-15.998c0-2.211,1.789-3.999,3.999-3.999
		c2.211,0,4,1.788,4,3.999v15.998C368.099,286.205,366.31,287.994,364.099,287.994z"/>
	<path style="fill:#116FFF;" d="M507.92,111.944c-1.031,0-2.07-0.398-2.852-1.195l-30.339-30.8H38.116L6.808,110.788
		c-1.573,1.562-4.108,1.539-5.655-0.039c-1.55-1.57-1.535-4.108,0.039-5.655l32.475-31.995c0.75-0.734,1.758-1.148,2.808-1.148
		h439.449c1.07,0,2.578,0.43,3.328,1.188l31.518,31.995c1.547,1.578,1.531,4.108-0.047,5.655
		C509.95,111.561,508.935,111.944,507.92,111.944z"/>
	<path style="fill:#116FFF;" d="M15.999,143.939c-5.815,0-11.143-2.414-15.002-6.796c-1.457-1.664-1.296-4.187,0.359-5.647
		c1.66-1.453,4.179-1.304,5.647,0.359c2.316,2.632,5.511,4.085,8.995,4.085c6.616,0,11.998-5.382,11.998-11.998
		c0-2.211,1.789-4,3.999-4c2.211,0,4,1.789,4,4C35.995,134.964,27.024,143.939,15.999,143.939z"/>
	<path style="fill:#116FFF;" d="M47.993,143.939c-1.558,0-2.863-0.141-4.105-0.43c-9.17-1.906-15.892-10.147-15.892-19.567
		c0-2.211,1.789-4,3.999-4c2.211,0,4,1.789,4,4c0,5.647,4.046,10.6,9.616,11.764c0.73,0.164,1.438,0.234,2.382,0.234
		c6.616,0,11.998-5.382,11.998-11.998c0-2.211,1.789-4,4-4c2.21,0,3.999,1.789,3.999,4C67.99,134.964,59.019,143.939,47.993,143.939
		z"/>
	<path style="fill:#116FFF;" d="M79.988,143.939c-11.025,0-19.997-8.975-19.997-19.997c0-2.211,1.789-4,4-4
		c2.21,0,3.999,1.789,3.999,4c0,6.616,5.382,11.998,11.998,11.998s11.998-5.382,11.998-11.998c0-2.211,1.789-4,4-4
		c2.21,0,3.999,1.789,3.999,4C99.985,134.964,91.014,143.939,79.988,143.939z"/>
	<path style="fill:#116FFF;" d="M111.983,143.939c-11.025,0-19.997-8.975-19.997-19.997c0-2.211,1.789-4,4-4
		c2.21,0,3.999,1.789,3.999,4c0,6.616,5.382,11.998,11.998,11.998s11.998-5.382,11.998-11.998c0-2.211,1.789-4,4-4s4,1.789,4,4
		C131.98,134.964,123.008,143.939,111.983,143.939z"/>
	<path style="fill:#116FFF;" d="M143.978,143.939c-11.026,0-19.997-8.975-19.997-19.997c0-2.211,1.789-4,4-4c2.211,0,4,1.789,4,4
		c0,6.616,5.382,11.998,11.998,11.998s11.998-5.382,11.998-11.998c0-2.211,1.789-4,3.999-4c2.211,0,4,1.789,4,4
		C163.975,134.964,155.003,143.939,143.978,143.939z"/>
	<path style="fill:#116FFF;" d="M175.973,143.939c-11.026,0-19.997-8.975-19.997-19.997c0-2.211,1.789-4,3.999-4
		c2.211,0,4,1.789,4,4c0,6.616,5.382,11.998,11.998,11.998s11.998-5.382,11.998-11.998c0-2.211,1.789-4,4-4
		c2.21,0,3.999,1.789,3.999,4C195.969,134.964,186.999,143.939,175.973,143.939z"/>
	<path style="fill:#116FFF;" d="M207.967,143.939c-11.025,0-19.997-8.975-19.997-19.997c0-2.211,1.789-4,4-4
		c2.21,0,3.999,1.789,3.999,4c0,6.616,5.382,11.998,11.998,11.998s11.998-5.382,11.998-11.998c0-2.211,1.789-4,4-4s4,1.789,4,4
		C227.964,134.964,218.993,143.939,207.967,143.939z"/>
	<path style="fill:#116FFF;" d="M239.962,143.939c-11.025,0-19.997-8.975-19.997-19.997c0-2.211,1.789-4,4-4s4,1.789,4,4
		c0,6.616,5.382,11.998,11.998,11.998s11.998-5.382,11.998-11.998c0-2.211,1.789-4,3.999-4c2.211,0,4,1.789,4,4
		C259.96,134.964,250.988,143.939,239.962,143.939z"/>
	<path style="fill:#116FFF;" d="M271.958,143.939c-11.025,0-19.998-8.975-19.998-19.997c0-2.211,1.789-4,3.999-4
		c2.211,0,4,1.789,4,4c0,6.616,5.382,11.998,11.998,11.998c6.615,0,11.998-5.382,11.998-11.998c0-2.211,1.788-4,3.999-4
		s3.999,1.789,3.999,4C291.954,134.964,282.987,143.939,271.958,143.939z"/>
	<path style="fill:#116FFF;" d="M303.952,143.939c-11.029,0-19.996-8.975-19.996-19.997c0-2.211,1.788-4,3.999-4
		s3.999,1.789,3.999,4c0,6.616,5.383,11.998,11.998,11.998c6.616,0,11.998-5.382,11.998-11.998c0-2.211,1.789-4,4-4
		c2.21,0,3.999,1.789,3.999,4C323.949,134.964,314.981,143.939,303.952,143.939z"/>
	<path style="fill:#116FFF;" d="M335.947,143.939c-11.029,0-19.997-8.975-19.997-19.997c0-2.211,1.789-4,4-4
		c2.21,0,3.999,1.789,3.999,4c0,6.616,5.382,11.998,11.998,11.998s11.998-5.382,11.998-11.998c0-2.211,1.789-4,3.999-4
		c2.211,0,4,1.789,4,4C355.944,134.964,346.977,143.939,335.947,143.939z"/>
	<path style="fill:#116FFF;" d="M367.942,143.939c-11.029,0-19.997-8.975-19.997-19.997c0-2.211,1.789-4,3.999-4
		c2.211,0,4,1.789,4,4c0,6.616,5.382,11.998,11.998,11.998s11.998-5.382,11.998-11.998c0-2.211,1.789-4,3.999-4
		c2.211,0,3.999,1.789,3.999,4C387.938,134.964,378.972,143.939,367.942,143.939z"/>
	<path style="fill:#116FFF;" d="M399.937,143.939c-11.029,0-19.996-8.975-19.996-19.997c0-2.211,1.789-4,3.999-4
		c2.211,0,3.999,1.789,3.999,4c0,6.616,5.383,11.998,11.998,11.998c6.617,0,11.998-5.382,11.998-11.998c0-2.211,1.789-4,4-4
		s3.999,1.789,3.999,4C419.934,134.964,410.967,143.939,399.937,143.939z"/>
	<path style="fill:#116FFF;" d="M431.932,143.939c-11.029,0-19.997-8.975-19.997-19.997c0-2.211,1.789-4,4-4s3.999,1.789,3.999,4
		c0,6.616,5.382,11.998,11.998,11.998s11.998-5.382,11.998-11.998c0-2.211,1.789-4,3.999-4c2.211,0,4,1.789,4,4
		C451.929,134.964,442.962,143.939,431.932,143.939z"/>
	<path style="fill:#116FFF;" d="M463.927,143.939c-1.555,0-2.859-0.133-4.101-0.422c-9.179-1.921-15.896-10.163-15.896-19.575
		c0-2.211,1.789-4,3.999-4c2.211,0,4,1.789,4,4c0,5.647,4.046,10.6,9.615,11.764c0.734,0.164,1.438,0.234,2.383,0.234
		c6.616,0,11.998-5.382,11.998-11.998c0-2.211,1.789-4,3.999-4c2.211,0,4,1.789,4,4
		C483.924,134.964,474.956,143.939,463.927,143.939z"/>
	<path style="fill:#116FFF;" d="M495.922,143.939c-11.03,0-19.997-8.975-19.997-19.997c0-2.211,1.789-4,3.999-4c2.211,0,4,1.789,4,4
		c0,6.616,5.382,11.998,11.998,11.998c3.483,0,6.788-1.492,9.076-4.085c1.453-1.664,3.983-1.812,5.64-0.359
		c1.664,1.46,1.82,3.984,0.359,5.647C507.193,141.463,501.702,143.939,495.922,143.939z"/>
	<path style="fill:#116FFF;" d="M4,138.495c-2.211,0-4-1.789-4-4v-26.55c0-2.21,1.789-4,4-4c2.21,0,3.999,1.789,3.999,4v26.55
		C7.999,136.706,6.211,138.495,4,138.495z"/>
	<path style="fill:#116FFF;" d="M492.398,111.944H20.478c-2.21,0-3.999-1.789-3.999-4s1.789-4,3.999-4h471.92
		c2.211,0,3.999,1.789,3.999,4S494.609,111.944,492.398,111.944z"/>
	<path style="fill:#116FFF;" d="M507.92,138.495c-2.211,0-4-1.789-4-4v-26.55c0-2.21,1.789-4,4-4c2.21,0,3.999,1.789,3.999,4v26.55
		C511.919,136.706,510.13,138.495,507.92,138.495z"/>
	<path style="fill:#116FFF;" d="M70.064,103.945c-0.836,0-1.676-0.266-2.395-0.805c-1.769-1.32-2.128-3.827-0.8-5.593L78.867,81.55
		c1.324-1.773,3.832-2.117,5.597-0.805c1.769,1.328,2.128,3.835,0.801,5.601l-11.998,15.997
		C72.481,103.391,71.283,103.945,70.064,103.945z"/>
	<path style="fill:#116FFF;" d="M101.02,103.945c-0.73,0-1.465-0.203-2.129-0.617c-1.867-1.179-2.429-3.647-1.25-5.515
		l10.081-15.997c1.175-1.867,3.644-2.422,5.515-1.25c1.867,1.172,2.429,3.64,1.25,5.515l-10.081,15.998
		C103.648,103.281,102.348,103.945,101.02,103.945z"/>
	<path style="fill:#116FFF;" d="M131.976,103.945c-0.602,0-1.215-0.141-1.793-0.43c-1.973-0.992-2.769-3.39-1.777-5.366
		l7.999-15.919c0.988-1.977,3.386-2.766,5.37-1.781c1.973,0.992,2.77,3.398,1.777,5.374l-7.999,15.919
		C134.85,103.141,133.44,103.945,131.976,103.945z"/>
	<path style="fill:#116FFF;" d="M163.014,103.945c-0.468,0-0.941-0.086-1.406-0.258c-2.066-0.773-3.113-3.077-2.34-5.147
		l5.999-15.997c0.773-2.078,3.078-3.102,5.152-2.344c2.066,0.781,3.113,3.085,2.339,5.155l-5.999,15.998
		C166.158,102.953,164.63,103.945,163.014,103.945z"/>
	<path style="fill:#116FFF;" d="M193.974,103.945c-0.32,0-0.648-0.039-0.972-0.125c-2.145-0.531-3.449-2.703-2.91-4.843l4-15.998
		c0.531-2.148,2.703-3.453,4.847-2.914s3.448,2.71,2.909,4.851l-3.999,15.998C197.395,102.734,195.766,103.945,193.974,103.945z"/>
	<path style="fill:#116FFF;" d="M225.008,103.945c-0.164,0-0.332-0.016-0.5-0.031c-2.191-0.273-3.746-2.273-3.472-4.468l2-15.998
		c0.277-2.187,2.237-3.734,4.464-3.468c2.191,0.273,3.745,2.273,3.472,4.46l-2,15.998
		C228.718,102.461,226.996,103.945,225.008,103.945z"/>
	<path style="fill:#116FFF;" d="M255.959,103.945c-2.21,0-3.999-1.789-3.999-3.999V83.949c0-2.21,1.789-4,3.999-4
		c2.211,0,4,1.789,4,4v15.998C259.96,102.157,258.171,103.945,255.959,103.945z"/>
	<path style="fill:#116FFF;" d="M39.034,103.945c-0.941,0-1.883-0.328-2.644-1c-1.656-1.46-1.816-3.983-0.359-5.647l14.08-15.997
		c1.461-1.648,3.988-1.805,5.647-0.359c1.656,1.461,1.816,3.991,0.359,5.647l-14.08,15.997
		C41.245,103.484,40.143,103.945,39.034,103.945z"/>
	<path style="fill:#116FFF;" d="M441.931,103.945c-1.211,0-2.414-0.555-3.203-1.602l-11.999-15.996
		c-1.32-1.766-0.961-4.272,0.805-5.601c1.758-1.312,4.265-0.969,5.601,0.805l11.998,15.997c1.32,1.766,0.961,4.273-0.805,5.593
		C443.609,103.68,442.767,103.945,441.931,103.945z"/>
	<path style="fill:#116FFF;" d="M410.975,103.945c-1.328,0-2.625-0.664-3.383-1.867L397.516,86.08
		c-1.18-1.875-0.617-4.343,1.25-5.515c1.874-1.172,4.343-0.625,5.515,1.25l10.076,15.997c1.18,1.867,0.617,4.335-1.25,5.515
		C412.442,103.742,411.708,103.945,410.975,103.945z"/>
	<path style="fill:#116FFF;" d="M379.94,103.945c-1.461,0-2.875-0.812-3.578-2.21l-7.998-15.998
		c-0.984-1.976-0.188-4.382,1.789-5.366c1.976-0.984,4.374-0.195,5.365,1.789l7.999,15.997c0.984,1.977,0.188,4.374-1.788,5.366
		C381.151,103.805,380.542,103.945,379.94,103.945z"/>
	<path style="fill:#116FFF;" d="M348.984,103.945c-1.617,0-3.14-0.992-3.741-2.593l-6-15.998c-0.78-2.07,0.266-4.374,2.336-5.155
		c2.047-0.758,4.375,0.273,5.147,2.344l5.999,15.997c0.781,2.07-0.266,4.374-2.335,5.147
		C349.93,103.859,349.453,103.945,348.984,103.945z"/>
	<path style="fill:#116FFF;" d="M317.95,103.945c-1.797,0-3.43-1.211-3.882-3.031l-4-15.998c-0.53-2.14,0.766-4.312,2.914-4.851
		c2.101-0.555,4.312,0.766,4.851,2.914l4,15.998c0.53,2.14-0.766,4.312-2.914,4.843C318.599,103.906,318.27,103.945,317.95,103.945z
		"/>
	<path style="fill:#116FFF;" d="M286.986,103.945c-1.983,0-3.71-1.484-3.96-3.507l-2-15.998c-0.273-2.187,1.281-4.187,3.469-4.46
		c2.14-0.281,4.194,1.273,4.468,3.468l1.999,15.998c0.273,2.195-1.28,4.194-3.468,4.468
		C287.322,103.93,287.158,103.945,286.986,103.945z"/>
	<path style="fill:#116FFF;" d="M472.964,103.945c-1.108,0-2.21-0.461-2.999-1.359l-14.076-15.997
		c-1.46-1.656-1.304-4.187,0.359-5.647c1.656-1.461,4.187-1.289,5.64,0.367l14.076,15.997c1.461,1.656,1.305,4.179-0.359,5.64
		C474.847,103.617,473.901,103.945,472.964,103.945z"/>
	<path style="fill:#116FFF;" d="M35.995,72.106c-2.21,0-4-1.788-4-3.999v-7.999c0-2.21,1.789-3.999,4-3.999s4,1.789,4,3.999v7.999
		C39.995,70.318,38.206,72.106,35.995,72.106z"/>
	<path style="fill:#116FFF;" d="M475.925,72.106c-2.211,0-3.999-1.788-3.999-3.999v-7.999c0-2.21,1.788-3.999,3.999-3.999
		s3.999,1.789,3.999,3.999v7.999C479.924,70.318,478.136,72.106,475.925,72.106z"/>
</g>
<g>
</g>
<g>
</g>
<g>
</g>
<g>
</g>
<g>
</g>
<g>
</g>
<g>
</g>
<g>
</g>
<g>
</g>
<g>
</g>
<g>
</g>
<g>
</g>
<g>
</g>
<g>
</g>
<g>
</g>
</svg>
